<?xml version="1.0" encoding="UTF-8"?>
<svg id="Layer_1" data-name="Layer 1" xmlns="http://www.w3.org/2000/svg" viewBox="0 0 410 150">
  <defs>
    <style>
      .cls-1 {
        fill: #8f918e;
      }

      .cls-2 {
        fill: #777774;
      }

      .cls-3 {
        fill: #8f8e8c;
      }

      .cls-4 {
        fill: #301206;
      }

      .cls-5 {
        fill: #c4c2bf;
      }

      .cls-6 {
        fill: #827c7a;
      }

      .cls-7 {
        fill: #341101;
      }

      .cls-8 {
        fill: #4f4f4c;
      }

      .cls-9 {
        fill: #8f8d8b;
      }

      .cls-10 {
        fill: #b8b7b5;
      }

      .cls-11 {
        fill: #6b6968;
      }

      .cls-12 {
        fill: #c7c5c0;
      }

      .cls-13 {
        fill: #919390;
      }

      .cls-14 {
        fill: #989692;
      }

      .cls-15 {
        fill: #90908e;
      }

      .cls-16 {
        fill: #321102;
      }

      .cls-17 {
        fill: #b9b8b7;
      }

      .cls-18 {
        fill: #282727;
      }

      .cls-19 {
        fill: #b5b5b1;
      }
    </style>
  </defs>
  <path class="cls-4" d="M357.69,25.34c9.55,1.19,19.15,.16,28.72,.58,1.7,.07,3.95-.79,4.33,2.17,.3,2.27-.83,3.48-2.7,4.34-5.16,2.37-9.64,5.74-13.92,9.42-4.5,3.87-10.09,1.19-15.04,2.38-5.49,3.63-11.59,1.13-17.37,1.74-.68,.03-1.38,.04-2.06,.04-2.67-.46-4.86,2.29-7.64,1.2-4.44-1.95-9.15-.95-13.75-1.23-2.17,.24-4.34,.05-6.51,.04-4.67,.24-9.34,.31-14.02,.04-58.96,.42-117.91,.45-176.87,0-4.71,.32-9.43,.2-14.14-.03-3.62,.11-7.25,.2-10.87-.03-4.69,.58-9.64-1.57-14.1,1.38-1.74,1.88-3.56,2.05-5.18-.05-1.06-1.38-2.39-1.42-3.88-1.26-6.96-.56-14.17,1.9-20.82-1.85-12.31,2.43-18.31-9.08-27.89-12.69-1.75-.66-1.4-2.45-1.17-3.86,.42-2.51,2.56-1.67,4.05-1.74,9.62-.46,19.28,.65,28.89-.63,.43-.49,.93-.87,1.51-1.16,1.93-.64,3.91-.51,5.9-.39,.72,.04,1.41,.16,2.12,.32,.75,.15,1.48,.32,2.22,.48,39.34,.28,78.66,.07,117.98,.1,50.47,.04,100.93,0,151.4,.02,4,0,7.99,.03,11.9-.96,2.35-.17,4.71-.43,7.03,.28,.69,.35,1.32,.8,1.87,1.35Z"/>
  <path class="cls-13" d="M72.4,24.83c11.15,.13,22.3,.36,33.45,.36,76.19,.03,152.39,0,228.58,.05,3.45,0,6.65-.2,9.49-2.48,3.72-2.99,8.24-2.79,12.66-2.83,1.58,1.56,1.22,3.51,1.11,5.41l-.58,.18-.55-.26c-2.14-1.88-4.27-1.9-6.38,.05-5.35,1.63-10.87,1.01-16.29,1.02-84.84,.08-169.69,.09-254.53,0-4.96,0-10.04,.8-14.9-1.04,2.5-2.73,5.25-1.13,7.95-.45Z"/>
  <path class="cls-19" d="M72.4,24.83c-2.65,.15-5.3,.3-7.95,.45l.02,.02c-1.29-2.17-3.59-3.36-5.13-5.28,2.6-2.1,5.1-.16,7.64,.18,1.81,1.54,3.62,3.08,5.43,4.63Z"/>
  <path class="cls-1" d="M59.34,20.02c3.36,.16,5.68,1.32,5.13,5.28l-.59,.11-.58-.14c-2.13-1.9-4.25-1.9-6.38,0l-.57,.17-.58-.13c-.1-2.63-.7-5.6,3.57-5.28Z"/>
  <path class="cls-11" d="M330.26,53.19c.06-2.4,.65-4.62,2.24-6.5,2.63,.47,3.49-3.7,6.42-2.45-1.3,4.89-1.84,9.83-1.13,14.87-3.06,2.76-6.11,2.76-9.17,0,.54-1.25,1.08-2.5,1.62-3.76,.56-.53,1.69-.81,1.72-1.38,.03-.73-1.2-.29-1.71-.78Z"/>
  <path class="cls-2" d="M81.11,46.68c1.52,1.44,1.38,3.54,2.11,5.29-2.91,1.99-5.34,1.56-7.26-1.44-.49-2.06-.97-4.12-1.46-6.18,1.24,.02,2.78-.87,3.05,1.49,.37,3.22,2,2.14,3.57,.84Z"/>
  <path class="cls-12" d="M56.93,25.27c2.13-4,4.25-4.02,6.38,0-2.13,.61-4.25,.59-6.38,0Z"/>
  <path class="cls-5" d="M350.18,25.3c2.1-4.12,4.23-3.96,6.38-.05-2.12,.58-4.25,.74-6.38,.05Z"/>
  <path class="cls-7" d="M56.96,121.44q-10.09-.64-10.1-11.17c0-4.62,.18-9.25-.07-13.86-.18-3.38,1.1-4.33,4.34-4.29,8.19,.12,16.38-.08,24.56-.15,3.75-2.53,7.94-1.71,12.04-1.61,78.87-.03,157.73-.05,236.6,0,4.46,.23,8.93-.42,13.4,.03,9.11,2.33,18.49,.34,27.67,1.73,2.56,8.91,1.23,18.05,.81,26.99-.21,4.44-5.67,.94-8.4,2.34-3.6,1.69-7.4,2.09-11.31,1.8-4.93-.5-9.87,.42-14.8-.08-2.63-.07-5.27,.27-7.9-.02-1.9,.03-3.81,.09-5.72,.02-5.49,.64-11-.43-16.49,.23-59.44,.1-118.87,.14-178.31,.02-7.1-.79-14.21,.34-21.31-.08-2.26-.39-4.54-.04-6.81-.2-1.87,.1-3.74,0-5.61,0-2.66,.29-5.31,.05-7.97,.04-8.25-.12-16.62,1.57-24.63-1.74Z"/>
  <path class="cls-16" d="M328.62,59.11c3.06,0,6.11,0,9.17,0,9.59,.15,19.19,.3,28.78,.46,0,9.12-.02,18.23-.02,27.35-5.91,1.99-12,.33-17.97,.87-6.7-.46-13.13,2.87-19.91,1.47-2.52-.38-5.05-.26-7.57-.26-77.68,0-155.37-.02-233.04,.01-11.69,.02-23.3-1.72-35-1.63-4.62,.72-6.77-.66-6.29-5.9,.52-5.61,.44-11.32,.03-16.95-.33-4.6,1.44-5.59,5.67-5.42,7.73,.31,15.49,.07,23.24,.05,2.66-1.85,5.34-1.89,8.02-.04,71.16,.11,142.32,.23,213.48,.31,9.67,.01,19.35-.22,29.03-.34,.8,0,1.6,.02,2.41,.02Z"/>
  <path class="cls-3" d="M330.13,88.14c5.87-.63,11.73-1.63,17.66-.76,.34,.29,.42,.53,.25,.72-.15,.17-.29,.25-.44,.25l-4.94,.09c-1.34,1.62-3.61,1.92-4.95,3.53-4.27,0-8.54,.02-12.81,.03-.37-1.3,.31-2.11,1.29-2.79,1.28-.49,2.67-.58,3.95-1.07Z"/>
  <path class="cls-6" d="M53.04,87.38c11.43-1.28,22.86,.46,34.3-.02,.41,.43,.72,.92,.94,1.46,.3,1.25-.05,2.31-.89,3.24-3.89-.03-7.79-.07-11.68-.1,.62-3.3-1.23-3.69-3.96-3.79-6.24-.21-12.53,.65-18.71-.8Z"/>
  <path class="cls-8" d="M83.71,59.12c-2.67,.02-5.35,.03-8.02,.04,1.38-2.84-.36-5.78,.27-8.64,2.21,1.57,4.82,1.07,7.26,1.44,.16,2.38,.33,4.77,.49,7.15Z"/>
  <path class="cls-18" d="M330.26,53.19c.73-.36,1.44-.92,2.21-1.05,1.37-.22,3.25-.68,3.58,1.25,.46,2.69-1.83,2.11-3.35,2.21-.81,.05-1.64-.15-2.46-.24,0-.72,0-1.44,.01-2.16Z"/>
  <path class="cls-10" d="M331.3,121.45c-.7,3.83-3,6.85-5.12,9.96-.48-.05-.97-.11-1.45-.16-6.02-1.54-6.27-4.04-1-9.8,2.52,0,5.05,0,7.57,0Z"/>
  <path class="cls-15" d="M323.73,121.44c-.04,3.31-5.69,7.19,1,9.8-1.4,1.11-2.97,1.59-4.75,1.29-.5-.77-1-1.55-1.5-2.32,.01-2.89,.02-5.79,.03-8.68,1.74-.03,3.48-.06,5.21-.09Z"/>
  <path class="cls-9" d="M94.9,128.93c-3.93-.95-3.97-4.59-5.14-7.46,1.73,0,3.46,0,5.18,.01,2.17,2.48,1.2,4.96-.02,7.43h-.03Z"/>
  <path class="cls-17" d="M94.93,128.92c0-2.48,.01-4.96,.02-7.43,2.09-.01,4.17-.03,6.26-.04-3.17,1.59-3.11,5.89-6.27,7.48Z"/>
  <path class="cls-14" d="M326.37,89.75c-1.36-1.86-3.37-1.41-5.21-1.41-77.96,0-155.93,.04-233.89,.06,0-.35,.03-.69,.06-1.04,2.1-.08,4.2-.24,6.29-.24,75.75-.01,151.49-.01,227.24,.02,3.1,0,6.3-.54,9.26,1-.68,1.87-1.78,2.77-3.76,1.61Z"/>
</svg>