<?xml version="1.0" encoding="UTF-8"?>
<svg id="Layer_1" data-name="Layer 1" xmlns="http://www.w3.org/2000/svg" viewBox="0 0 366 320">
  <defs>
    <style>
      .cls-1 {
        fill: #07b2f7;
      }

      .cls-2 {
        fill: #17b5f2;
      }

      .cls-3 {
        fill: #00a2e8;
      }

      .cls-4 {
        fill: #14b4f6;
      }

      .cls-5 {
        stroke: #8c8c8c;
        stroke-dasharray: 0 0 2.75 27.5;
        stroke-width: 20.97px;
      }

      .cls-5, .cls-6 {
        fill: none;
        stroke-miterlimit: 10;
      }

      .cls-7 {
        fill: #07a9ee;
      }

      .cls-8 {
        fill: #009af3;
      }

      .cls-9 {
        fill: #02aff2;
      }

      .cls-10 {
        fill: #0eb5f4;
      }

      .cls-11 {
        fill: #18b6f4;
      }

      .cls-12 {
        fill: #0292e2;
      }

      .cls-13 {
        fill: #1eb9f6;
      }

      .cls-14 {
        fill: #1bb8f5;
      }

      .cls-15 {
        fill: #03abf0;
      }

      .cls-16 {
        fill: #22baf5;
      }

      .cls-17 {
        fill: #15b2ee;
      }

      .cls-18 {
        fill: #12b6f4;
      }

      .cls-19 {
        fill: #0097e2;
      }

      .cls-20 {
        fill: #01abec;
      }

      .cls-6 {
        stroke: #b8b7b5;
        stroke-width: 20.97px;
      }

      .cls-21 {
        fill: #08adf3;
      }

      .cls-22 {
        fill: #03a7ee;
      }

      .cls-23 {
        fill: #0099de;
      }

      .cls-24 {
        fill: #05a6ee;
      }

      .cls-25 {
        fill: #05a4ec;
      }

      .cls-26 {
        fill: #0191e5;
      }

      .cls-27 {
        fill: #009be3;
      }

      .cls-28 {
        fill: #05a9f1;
      }

      .cls-29 {
        fill: #0096e2;
      }

      .cls-30 {
        fill: #14bbf9;
      }

      .cls-31 {
        fill: #04a6ed;
      }

      .cls-32 {
        fill: #03a0ea;
      }

      .cls-33 {
        fill: #099dee;
      }

      .cls-34 {
        fill: #13b6f3;
      }

      .cls-35 {
        fill: #01a1ea;
      }

      .cls-36 {
        fill: #0c96dd;
      }

      .cls-37 {
        fill: #0190dc;
      }

      .cls-38 {
        fill: #11b9f3;
      }

      .cls-39 {
        fill: #0cabf5;
      }

      .cls-40 {
        fill: #12b5f1;
      }

      .cls-41 {
        fill: #03a6fa;
      }

      .cls-42 {
        fill: #0096e1;
      }

      .cls-43 {
        fill: #0da4e8;
      }

      .cls-44 {
        fill: #02a8ee;
      }

      .cls-45 {
        fill: #06aaf0;
      }

      .cls-46 {
        fill: #14b5f2;
      }

      .cls-47 {
        fill: #0096df;
      }

      .cls-48 {
        fill: #0cacf6;
      }

      .cls-49 {
        fill: #04bafc;
      }

      .cls-50 {
        fill: #0695da;
      }

      .cls-51 {
        fill: #05acf0;
      }

      .cls-52 {
        fill: #0196e3;
      }

      .cls-53 {
        fill: #0596e4;
      }

      .cls-54 {
        fill: #10b3f2;
      }

      .cls-55 {
        fill: #03aef2;
      }

      .cls-56 {
        fill: #07a9f1;
      }

      .cls-57 {
        fill: #07abf0;
      }

      .cls-58 {
        fill: #0093e3;
      }

      .cls-59 {
        fill: #01b1f4;
      }

      .cls-60 {
        fill: #04adf1;
      }

      .cls-61 {
        fill: #048fda;
      }

      .cls-62 {
        fill: #15b4f1;
      }

      .cls-63 {
        fill: #09a6e1;
      }

      .cls-64 {
        fill: #0899e4;
      }

      .cls-65 {
        fill: #05a4ee;
      }

      .cls-66 {
        fill: #02acf0;
      }

      .cls-67 {
        fill: #21bef5;
      }

      .cls-68 {
        fill: #0baff5;
      }

      .cls-69 {
        fill: #10a4e6;
      }

      .cls-70 {
        fill: #0aa1e8;
      }

      .cls-71 {
        fill: #0394e1;
      }

      .cls-72 {
        fill: #1cb8f4;
      }

      .cls-73 {
        fill: #0cb6fb;
      }

      .cls-74 {
        fill: #05abf1;
      }

      .cls-75 {
        fill: #18baf5;
      }

      .cls-76 {
        fill: #10b7f4;
      }

      .cls-77 {
        fill: #05adef;
      }

      .cls-78 {
        fill: #0bb0f6;
      }

      .cls-79 {
        fill: #009ae4;
      }

      .cls-80 {
        fill: #05a8e3;
      }

      .cls-81 {
        fill: #01adf0;
      }

      .cls-82 {
        fill: #02aaef;
      }

      .cls-83 {
        fill: #04a7ee;
      }

      .cls-84 {
        fill: #15bef8;
      }

      .cls-85 {
        fill: #009de7;
      }

      .cls-86 {
        fill: #0198e2;
      }

      .cls-87 {
        fill: #11b4f6;
      }

      .cls-88 {
        fill: #0191e9;
      }

      .cls-89 {
        fill: #07a7f0;
      }

      .cls-90 {
        fill: #0691ce;
      }

      .cls-91 {
        fill: #0199e2;
      }

      .cls-92 {
        fill: #01a6eb;
      }

      .cls-93 {
        fill: #03a6ed;
      }

      .cls-94 {
        fill: #019ee8;
      }

      .cls-95 {
        fill: #20bdf2;
      }
    </style>
  </defs>
  <g>
    <path class="cls-71" d="M320.81,118.96c.36,3.58,.73,7.16,1.09,10.75,1.64,1.74,3.78,3.17,3.72,5.97-.42,1.8-.38,3.74-1.57,5.32-1.22,.51-2.46,.57-3.72,.19-1.76-.97-3.04-2.37-3.86-4.19-.68-7.57-4.29-14.5-4.83-22.11,1.74-3.39,4.1-2.08,6.45-.84,1.59,1.25,2.63,2.82,2.72,4.91Z"/>
    <path class="cls-71" d="M317.8,191.9c.34,.79,.42,1.61,.24,2.45-2.18,3.91-4.03,8.15-9.22,8.97-4.86-2.53-4.65-7.65-6.13-11.92-.97-6.17,1.15-11.89,2.59-17.71,3.45-8.28,7.64-16.38,6.43-25.84,1.17-3.46,2.87-6.12,7.21-4.77,4.26,6.11,2.64,12.67,1.45,19.21-.85,4.67-3.87,9.14-1.24,14.1,.56,1.09,.97,2.25,1.27,3.44,1.24,4.47-1.75,8.04-2.6,12.08Z"/>
    <path class="cls-71" d="M323.83,170.28c-.89,6.31-1.78,12.61-2.68,18.92-1.12,.9-2.24,1.8-3.36,2.7-4.62-3.94,1.55-7.15,.73-10.84,1.06-5.35-1.39-10.73,.14-16.09,.46-2.1,1.09-4.14,2.21-6.02,1.54-.47,2.86-.12,3.98,1.04,2.18,3.68,1.6,7.09-1.02,10.29Z"/>
    <path class="cls-71" d="M310.18,202.63c.22-5.04,4.6-6.13,7.86-8.28,.05,1.83,.1,3.67,.15,5.5,.22,1.68,.28,3.36-.07,5.04-.81,3.45-2.2,6.63-4.31,9.51-1.23,1.46-2.69,2.55-4.66,2.8-1.32-.24-2.3-.94-2.9-2.15-1.01-4.87,.46-8.96,3.92-12.41Z"/>
    <path class="cls-71" d="M318.35,143.21c-1.79,1.79-3.58,3.59-5.37,5.38-1.29,.68-2.5,.56-3.63-.37-1.97-3.02-2.05-6.2-.79-9.48,.66-1.13,1.67-2.04,2.38-3.14,.97-1.5,1.16-3.33,1.87-4.95-1.46,1.41-.99,3.81-2.65,5.14-1.29,.37-2.44,.11-3.49-.7-2.03-2.7-2.23-5.88-2.45-9.05,.44-7.4-6.05-11.44-8.52-17.44-.34-1.25-.43-2.5-.3-3.79,1.04-3.79,1.87-7.74,6.56-8.8,3.78,.16,5.56,3,7.52,5.6,1.86,3.77,6.86,6.52,3.93,11.87,2.68,7.87,6.59,15.49,5.02,24.25,1.4,1.85,1.62,3.68-.1,5.47Z"/>
    <path class="cls-71" d="M318.35,143.21c.03-1.82,.07-3.65,.1-5.47,.87,.93,1.75,1.86,2.62,2.79,2.12,6.3,2.01,12.61,.06,18.93-.05,1.77-.09,3.53-.14,5.3-3.19,4.08,.69,9.58-2.75,13.61-6.19-.95-5.38-4.72-3.58-8.88,3.64-8.42,4.26-17.26,3.69-26.27Z"/>
    <path class="cls-71" d="M321.13,159.46c-.02-6.31-.04-12.62-.06-18.93,.84-.02,1.69,0,2.52,.02,.02,6.28,.05,12.56,.08,18.84-.85,.04-1.7,.06-2.55,.07Z"/>
    <path class="cls-71" d="M296.8,108.05c4.94,4.53,11.07,8.27,10.76,16.28-2.99,3.6-4.36,7.19,.02,10.77,.89,0,1.79,.02,2.68,.03,.76,.58,1.01,1.17,.77,1.77-.24,.6-.49,.9-.73,.9l.04,10.79c4.14,8.69,.2,16.47-2.72,24.37l-2.79,18.87c-1.12,.57-2.27,.69-3.48,.31-5.52-2.57-6.96-7.93-8.88-12.98-.93-2.77-1.71-5.58-2.18-8.47-.06-1.18,.15-2.31,.61-3.4,.56-1.06,1.22-2.05,1.93-3.01,3.65-4.74,3.51-10.27,3.28-15.8-.1-7.2-4.54-13.82-2.95-21.26-1.4-1.59,5.56-6.66-2.34-5.51-1.03-1.47-1.22-3.08-.78-4.79,.88-2.01,2.48-3.53,3.62-5.37,.81-1.38,1.71-2.69,3.15-3.5Z"/>
    <path class="cls-71" d="M302.14,191.84c.89,0,1.79,0,2.68-.02,4.42,2.29,1.09,8.43,5.36,10.8,1.31,4.99-2.49,8.9-2.86,13.54-2.5,1.99-4.59,1.13-6.52-.92-1.94-3.05-3.68-6.22-4.9-9.65,.4-4.7,3.39-8.39,4.94-12.64,.43-.38,.87-.74,1.31-1.11Z"/>
    <path class="cls-71" d="M307.62,172.96c.91-8.12,1.82-16.24,2.72-24.37,.88,.02,1.76,.02,2.64,0,5.73,9.77-.51,16.91-5.36,24.36Z"/>
    <path class="cls-71" d="M318.24,178.37c.97-4.53-1.51-9.75,2.75-13.61-.58,5.47,2.14,11.44-2.46,16.3-.1-.9-.19-1.79-.29-2.69Z"/>
    <path class="cls-71" d="M302.11,213.61c1.13,2.09,3.08,2.51,5.21,2.56,.77,.09,1.54,.16,2.31,.23,.78,.51,1.16,1.13,1.16,1.86,0,.79-.11,1.18-.31,1.19-.97,.82-2.06,1.38-3.28,1.73-1.27,.24-2.53,.31-3.82,.23-2-.25-3.8-.93-5.31-2.3-1.23-1.84-2.67-3.75-.57-5.82,1.55-1.53,3.16-.97,4.62,.34Z"/>
    <path class="cls-71" d="M307.03,89.78c.26,1.61,.51,3.23,.77,4.84-1.01,3.25,1.83,5.31,2.5,8.04-.81,.05-1.62,.1-2.44,.14-1.92-1.85-3.84-3.7-5.76-5.55-1.86-1.03-3.62-2.17-4.43-4.29-.75-1.94-1.34-3.93-1.92-5.93-.2-1.04-.13-2.06,.22-3.06,.45-.26,.9-.52,1.35-.78,3.23,2.2,6.47,4.39,9.7,6.59Z"/>
    <path class="cls-71" d="M307.58,135.09c-2.47,2.61-4.6,2.25-5.11-1.28-.6-4.14-1.26-8.84,5.08-9.49,0,3.59,.02,7.18,.02,10.77Z"/>
    <path class="cls-58" d="M296.8,108.05c-.01,1.82-.03,3.63-.04,5.45-8.42,2.78-7.59-3.52-8.25-8.39,.15-1.44,.57-2.81,1.25-4.1,.81-1.28,1.98-1.94,3.5-1.96,2.93,1.11,4.62,2.93,3.6,6.3-.02,.9-.04,1.79-.05,2.69Z"/>
    <path class="cls-71" d="M296.85,105.36l-2.81-5.39c-2.62-5.59-.6-8.14,5.32-8.12,.91,1.8,1.83,3.6,2.74,5.4-1.75,2.7-3.51,5.41-5.26,8.11Z"/>
    <path class="cls-71" d="M310.3,137.8c-.02-.89-.04-1.78-.04-2.67,0-3.57,0-7.15,0-11.92,7.55,5.96,3.88,10.28,.04,14.6Z"/>
    <path class="cls-71" d="M53.6,175.66c.15-8.08,.3-16.16,.44-24.24,1.81-.7,3.17-.19,4.09,1.52,2.49,8.96,4.45,17.88-2.18,26.08-.74-.27-1.47-.56-2.18-.88,.16-.84,.1-1.67-.17-2.48Z"/>
    <path class="cls-71" d="M55.96,179.02c.13-9.23,.26-18.46,.39-27.69-1.36-7.46,2-14.62,1.43-22.04,.06-1.51,.79-2.54,2.19-3.09,1.47,0,2.59,.62,3.36,1.88,3.58,7.48,.25,15.91,3.24,23.46,.91,1.73,1.74,3.49,2.52,5.28,1.58,4.28,3.22,8.55,3.42,13.2-.03,4.06-1.49,7.62-3.85,10.86-2.03,2.45-4.11,4.86-6.84,6.59-1.92,.64-3.69,.55-5.13-1.09-.24-2.45-.48-4.91-.72-7.36Z"/>
    <path class="cls-71" d="M56.68,186.38c1.68,.04,3.36,.09,5.03,.13,5.47,5.8,11.82,11.22,8.94,20.64-7.42,3.51-5.5-5.6-9.35-6.92-3.28-1.9-.97-6.97-4.84-8.53-.07-.87-.25-1.71-.55-2.53,.26-.93,.51-1.85,.77-2.78Z"/>
    <path class="cls-50" d="M296.76,127c-3.75,7.79,3.91,14.15,2.7,21.62-4.8,5.45-1.49,13.22-5.39,18.92h-2.7c-.52-.53-1.05-1.07-1.58-1.6-3.62-11.67-2-23.53-1.26-35.36,.41-1.46,1.12-2.76,2.11-3.91,2.11-1.24,4.15-1.3,6.11,.33Z"/>
    <path class="cls-94" d="M291.37,167.54c0,.9,0,1.8,0,2.7-.57,3.32,.79,7.63-4.39,8.59-3.9-2.14-4.19-5.97-4.59-9.75-.1-9.34-.54-18.67-.19-28.02-.02-4.84-.15-9.71,3-13.85,1.51-1.02,2.95-.91,4.29,.32,1.87,13.28-1.47,26.81,1.87,40.02h.01Z"/>
    <path class="cls-47" d="M291.36,102.68c.52,4.25-1.82,9.93,5.41,10.82-1.16,2.18-3.18,2.65-5.4,2.7-1.75,1.52-3.77,2.13-6.07,1.83-9.6-8.07-9.32-10.39,1.97-16.5,1.52-.19,2.89,.2,4.09,1.16Z"/>
    <path class="cls-71" d="M294.07,178.34c2.69,4.5,5.39,9,8.08,13.5v.02c-1.89,2.88-2.3,8.67-8,4.06-4.06-3.29-6.1-7.45-5.45-12.76,.95-2.54,1.29-5.79,5.38-4.82Z"/>
    <path class="cls-71" d="M294.07,167.54c1.95-6.26-4.7-14.98,5.39-18.92,.03,6.83,.82,13.87-5.39,18.92Z"/>
    <path class="cls-58" d="M285.96,116.19c1.8,0,3.6,0,5.4,0,0,1.8,0,3.61,0,5.41,1.69,1.79,1.56,3.59,.01,5.39h-.04c-.89,1.31-1.79,1.31-2.68,.01-.9,0-1.8,0-2.7-.01-1.69-1.4-2.34-3.27-2.45-5.39,.08-2.13,.89-3.94,2.45-5.41Z"/>
    <path class="cls-33" d="M294.07,178.34c-2.17,1.18-2.66,3.2-2.72,5.43-1.16,.88-2.29,.8-3.4-.11-.93-1.92-.96-3.72,.7-5.3,.1-2.97-.47-6.17,2.71-8.12,3.16,1.95,2.62,5.13,2.7,8.1Z"/>
    <path class="cls-71" d="M291.38,127c0-1.8,0-3.6-.01-5.39,6.62-3.02,5.2,1.99,5.39,5.4-1.79,0-3.59,0-5.38,0Z"/>
    <path class="cls-71" d="M296.75,194.57c3.67,2.82,2.95-3.09,5.39-2.71,1,5.61-.99,10.04-5.36,13.52,.08,3.47,.27,6.98-3.69,8.75-2.35-.58-3.5-2.3-4.25-4.43-.54-6.71-2.43-14.13,7.91-15.13Z"/>
    <path class="cls-71" d="M294.05,213.51c.11-2.98-.46-6.18,2.73-8.12,3.61,1.55,5.43,4.27,5.33,8.23-4.98-.28-3.89,2.46-2.63,5.29-5.49,1.91-7.53,.34-5.43-5.39Z"/>
    <path class="cls-71" d="M294.05,213.51c.11,3.51,1.91,5.31,5.43,5.39,1.79,0,3.59,.02,5.38,.02,1.44,6.94-5.43,9.37-7.76,14.27-3.64,3.74-7.15,7.77-13.28,5.55-1.94-1.9-1.65-4.29-.14-5.85,5.84-6.06,4.61-12.48,1.54-19.15,1.34-2.46,3.01-4.2,6.12-2.92,.9,.9,1.8,1.79,2.7,2.69Z"/>
    <path class="cls-71" d="M283.49,67.45c2.65,1.74,5.29,3.47,7.94,5.21,.81,1.03,1.63,2.06,2.44,3.1,.24,.86,.48,1.72,.73,2.57,.91,1.62,1.82,3.25,2.73,4.87l-.81,.86c-3.04,2.62-6.51,3.01-10.25,2-4.64-1.67-5.68-5.76-6.65-9.9-.32-3.12-3.79-5.73-1.56-9.28,1.94-1,3.75-.78,5.43,.59Z"/>
    <path class="cls-71" d="M277.98,61.65c1.84,1.93,3.67,3.86,5.51,5.79l-5.81,.24c-2.46,1.19-4.42-.18-6.45-1.25-3.37-2.2-7.09-3.74-10.6-5.71-1.56-.89-3.06-1.87-4.59-2.8-12.02-5.12-24.33-9.36-37.01-12.49-3.14-.92-6.25-1.92-9.39-2.85-3.76-1.58-8.42-1.38-10.89-5.51-.06-1.63,.62-2.83,2.04-3.62,6.13-2.17,11.89-.38,17.63,1.59l.05,.02c4.92,3.05,11.01,.7,16.01,3.41,4.4,1.98,8.75,4.13,13.72,4.35,1.83,.22,3.61,.67,5.32,1.36"/>
    <path class="cls-71" d="M277.94,59.37c-.03,.76-.02,1.53,.04,2.29"/>
    <path class="cls-71" d="M283.05,72.94c.65,3.7-1.05,8.03,2.9,10.84,2.43,5.84,7.85-.82,10.86,2.6,2.14,1.22,2.56,3.25,2.56,5.47-3.49,1.58-5.29,4.28-5.33,8.12-.89,0-1.78,0-2.68,0-5.1-1.67-9.55-4.62-14.22-7.12-4.3-2.3-8.34-3.49-10.73,2.48-1.1,1.56-2.47,2.68-4.48,2.71-7.49-3.03-3.8-10.14-5.59-15.22-2.12-1.72-4.9-1.77-7.24-2.94-.98-.64-1.61-1.52-1.91-2.65,.1-1.21,.66-2.16,1.59-2.91,1.53-.89,3.19-1.41,4.88-1.87,4.02-.81,7.26-4.15,11.69-3.69,3.26,.86,5.2,2.95,5.84,6.2,.23,1.13-.25,3.54,.83,3.24,1.97-.55,2.71-3.16,4.28-4.64,2.11-1.67,4.29-2.72,6.74-.64Z"/>
    <path class="cls-71" d="M296.81,86.38c-2.96-3.64-10.52,12.01-10.86-2.6,3.52,.09,7.04,.17,10.56,.26,.17,.77,.27,1.55,.3,2.34Z"/>
    <path class="cls-42" d="M264.35,94.58c-.22-5.11,1.37-9.63,7.27-7.61,7.51,2.56,15.45,5.23,19.74,13.01,0,.9,0,1.8-.01,2.7-.9,0-1.8,0-2.7,0-9.34,1.01-17.27-2.2-24.31-8.1Z"/>
    <path class="cls-71" d="M264.51,257.12c-6.77,4.11-12.57,10.12-21.1,10.76l-1.18-.42c-.64-8.27,7.15-9.12,11.44-13.08,1-.8,2.1-1.42,3.27-1.94,2.62-.75,5.1-.64,7.29,1.19,.88,1.1,.93,2.27,.27,3.5Z"/>
    <path class="cls-71" d="M264.51,257.12c-.08-1.07-.15-2.15-.23-3.22,.14-.54,.27-1.09,.4-1.64,1.02-2.06,2.56-3.72,4.13-5.35,2.06-2.04,4.08-4.14,6.92-5.14,1.84-.34,3.48,0,4.79,1.44,.84,1.78,1.69,3.56,2.53,5.34-.13,.67-.2,1.35-.21,2.03-3.6,.66-7.73-.43-10.43,3.18-2.63,1.12-5.26,2.24-7.89,3.36Z"/>
    <path class="cls-71" d="M58.94,127.08c-.17,8.16,1.61,16.52-2.6,24.25-.77,0-1.54,.03-2.3,.09-.16-2.76-.32-5.52-.48-8.28,.94-5.39,1.89-10.78,2.84-16.17,.89-.89,1.73-.85,2.54,.11Z"/>
    <path class="cls-71" d="M64.56,210.69c-.16-2.22-.7-4.24-2.83-5.45-.14-1.67-.28-3.35-.43-5.02,4.89,.43,5.03,5.96,8.49,7.92,.43,.46,.87,.92,1.31,1.38,1.04,2.54,.94,4.92-.98,7.05-4.73,.78-4.39-3.26-5.56-5.87Z"/>
    <path class="cls-71" d="M69.79,208.14c1.43-8.75-8.21-13.37-8.08-21.63,.12-3.45,1.82-5.35,5.33-5.5,.42,.36,.85,.73,1.27,1.09,1.74,1.06-.22,4.69,3.17,4.46,.57-5.26,1.25-10.4,.34-15.58-.39-1.2-.6-2.42-.65-3.68-1.15-5.32-1.97-10.01,2.68-14.91,6.46-6.81,1.52-16.65,4.63-24.63,1.31-3.15,2.89-6.05,6.6-6.89,3.38,.8,5.55,3.36,8.02,5.49,7.47,5.93,10.08,12.77,5.4,22.01-5.06,9.99-1.78,20.88-2.08,31.38-5.31,8.38,6.25,4.54,6.48,8.9,.39,1.17,.49,2.35,.3,3.56-9.52,7.39,.97,13.98,.87,20.99-.51,1.87-1.58,3.21-3.51,3.73-3.98-1.33-7.88-.53-11.79,.48-4.77-.66-9.54-.19-14.32-.11-5.21-1.2-1.66-6.85-4.65-9.18v.02Z"/>
    <path class="cls-71" d="M80.64,127.01c-1.02,10.83,3.71,22.83-7.72,31.57-1.95,1.49-.34,7.65-.38,11.66-.87,.93-1.75,.94-2.65,.05-.95-4.52-1.9-9.05-2.85-13.57-1.86-2.9-2.2-5.8-.05-8.72,.78-.9,1.64-1.74,2.53-2.52,4.54-4.77,1.39-11.27,3.66-16.56,.51-1.16,1.28-2.11,2.28-2.87,1.92-.69,3.68-.5,5.2,.96Z"/>
    <path class="cls-71" d="M69.81,148.61c-3.15,1.94-2.54,5.17-2.78,8.11-.87-.9-1.75-1.79-2.62-2.69-2.75-8.19-.6-16.63-1.29-24.92-.12-1.57,.12-3.07,.71-4.53,2.68-1.6,4.32,.13,5.98,1.85,3.67,7.39,4.18,14.79,0,22.18Z"/>
    <path class="cls-71" d="M64.27,124.31c-.12,.72-.12,1.45-.01,2.18-.46,1.52-1.27,1.83-2.48,.71-.92-.09-1.84-.19-2.76-.28-1.19-5.68,1.97-10.58,2.83-15.89,.62-3.33,.7-7.24,5.98-5.48,1.27,1.73,1.67,3.7,1.59,5.8-.99,4.61-1.2,9.53-5.15,12.96Z"/>
    <path class="cls-71" d="M61.77,127.19c.82-.26,1.65-.5,2.48-.71,.05,9.18,.1,18.36,.15,27.54-5.46-8.5-1.5-17.92-2.63-26.83Z"/>
    <path class="cls-71" d="M69.88,170.29c.88-.03,1.77-.04,2.65-.05h0c2.56,4.83,.88,9.98,1.14,14.97-6.32,5.23-4.01-3.2-6.46-4.08l-.16-.12c.94-3.57,1.89-7.15,2.83-10.72Z"/>
    <path class="cls-71" d="M109.91,56.53c1.77-5.34,8.25-4.12,11.1-7.96,2.64-1.03,5.27-2.06,7.91-3.09,.35,.52,.71,1.04,1.06,1.56,.04,2-.73,3.7-1.87,5.28-2.05,2.52-4.38,4.72-7.36,6.13-1.87,.72-3.8,.99-5.8,.86-2.03-.28-3.82-1.01-5.03-2.78Z"/>
    <path class="cls-71" d="M135.29,40.83c2.53-.06,5.06-.12,7.59-.18,.35,7.09-4.5,7.58-9.7,7.64-1.42-.27-2.62-.93-3.61-1.98l-.65-.83c2.12-1.55,4.24-3.1,6.37-4.65Z"/>
    <path class="cls-71" d="M132.08,46.47c4.4-.45,8.77-.95,10.79-5.82,1.75-.17,3.49-.35,5.24-.52,.46,.38,.92,.77,1.39,1.15,1.86,3.21,3.05,6.56,2.2,10.35-.39,3.67-8.97,2.62-5.06,8.8-.71,1.95-2.14,3.08-4.09,3.63-2.04,.32-3.95-.02-5.71-1.11-2.55-2.44-3.86-5.42-3.86-8.95,.2-1.29,.77-2.42,1.69-3.35,2.38-.87,4.99-.48,7.45-.97,1.72-.65,.75-2.13,1.28-.44,.29,.94-1.95,.76-2.98,.71-2.63-.11-5.29,.28-7.91-.34-.78-.61-1.1-1.27-.96-1.99,.14-.75,.32-1.13,.54-1.13Z"/>
    <path class="cls-71" d="M153.63,37.21c.94-.6,1.87-1.2,2.81-1.8,6.29-.04,12.59-.09,18.88-.14,.75,1.42,.51,2.66-.72,3.7-5.74,2.95-12.07,3.54-18.3,4.58-2.96,.18-5.66-.56-8.09-2.27l-.11-1.17c1.84-.97,3.68-1.94,5.52-2.92Z"/>
    <path class="cls-71" d="M67.47,110.73c-.2-1.99-.4-3.98-.6-5.97-4.5-8.5,8.96-11.14,6.2-19.07,2.11-2.17,7.07-.4,7.26-5.25,1.57-2.72,3.26-5.31,6.51-6.31,1.94-.36,3.73-.04,5.27,1.27,1.02,1.69,1.14,3.47,.52,5.31-2.82,3.67-6.25,7-6.89,11.94-.33,1.15-.79,2.25-1.33,3.31-1.68,3.22-4.22,5.66-7.04,7.84-2.7,2.05-4.43,5.02-6.89,7.31-1.09,.54-2.1,.41-3.01-.39Z"/>
    <path class="cls-79" d="M288.66,127.01c.89,0,1.79,0,2.68,0,0,13.51,.01,27.03,.02,40.54-5.94-13.18-1.16-27.07-2.7-40.54Z"/>
    <path class="cls-44" d="M285.95,121.61c0,1.8,.01,3.6,.02,5.39,0,4.51-.02,9.03-.03,13.54-9.05,7.95,.25,18.66-4.09,27.34-1.61,2.49-3.88,4.03-6.71,4.83-2.89,.68-5.74,.58-8.54-.42-9.83-5.36-9.97-16.6-15.07-24.85-1.7-9.86-5.27-19.57-2.64-29.81,5.56-6.55,12.57-5.6,19.16-2.71,5.43,2.38,4.12,7.71,2.73,12.86,2.77-3.79,6.16-5.73,9.73-7.45,2.03-.49,3.89-.22,5.45,1.28Z"/>
    <path class="cls-1" d="M280.55,167.55c.52-5-1.34-9.59-2.27-14.37-1.19-6.1-.59-11.89,7.66-12.63,0,9.91,.02,19.81,.03,29.72-.79,.86-1.76,1.4-2.93,1.56-1.17-.12-2.21-.55-3.13-1.29-.53-1.16-.32-2.15,.65-2.98Z"/>
    <path class="cls-27" d="M283.28,170.3c.89-.02,1.79-.03,2.68-.03,.09,2.97-.47,6.15,2.69,8.1,0,1.8,.01,3.6,.02,5.4,1.74,3.55,2.53,7.66-2.15,8.71-4.46,1-5.87-3.32-6.41-6.95-.81-5.39-.87-10.77,3.16-15.23Z"/>
    <path class="cls-79" d="M285.95,121.61l-5.39-.02c-5.55-4.58-6.51-14.16-15.91-14.54-2.4-1.38-3.94-3.36-4.4-6.13,.04-1.38,.51-2.59,1.39-3.65,.9-.9,1.8-1.8,2.7-2.7,8.95,.15,16.12,5.65,24.31,8.1-4.89,3.71-13.79,6.61-2.7,13.51,0,1.8,0,3.61-.01,5.41Z"/>
    <path class="cls-35" d="M283.28,170.3c0,4.91-.17,9.82,.1,14.72,.12,2.2-.74,6.23,3.64,4.7,1.11-.39,1.13-3.88,1.65-5.95,.89,0,1.78,0,2.68,.01-1.09,5.05,2.51,7.74,5.4,10.8-7.46,3.54-4.88,10.41-5.4,16.25-1.76,.91-3.51,1.82-5.27,2.73-2.39,2.64-3.8,6.76-8.63,5.75-1.53-1.23-2.6-2.81-3.5-4.54-7.75-9.63,2.42-17.35,2.76-26.14,.81-6.23-1.27-13.05,3.84-18.36l2.72,.04Z"/>
    <path class="cls-71" d="M277.89,218.9c2.79-1.7,3.92-5.92,8.19-5.35,14.59,9.89,1.4,16.94-2.55,24.93-.82,.79-1.65,1.58-2.48,2.38q-5.02-1.43-4.5-10.63c.22-2.94-2.17-5.17-2.22-8.05,.54-1.79,1.72-2.89,3.55-3.28Z"/>
    <path class="cls-71" d="M283.05,72.94c-2.16,.07-4.09,.59-5.2,2.69-2.69,1.94-5.38,2.48-8.08,.04-1.03-2.58-2.84-4.38-5.41-5.43q-1.06-6.44,8.04-5.44c1.76,.96,3.52,1.92,5.28,2.88,1.79,1.75,3.58,3.51,5.37,5.26Z"/>
    <path class="cls-71" d="M261.66,59.48c1.64,3.7-1.23,5.35-3.3,7.37-3.66,2.63-6.95,5.69-10.2,8.8h-.01c-1.82,1.5-3.75,2.77-6.11,3.2-6.81,.38-13.7,1.5-20.19-1.76-1.82-1.49-2.3-3.4-1.71-5.62,2.5-3.6,6.23-4.04,10.2-3.85-3.79-.28-7.38,.05-9.98,3.36-3.53,2.8-7.55,2.68-11.67,2-1.36-.34-2.58-.97-3.66-1.85-.87-1.17-1.04-2.44-.52-3.8q5.52-1.18,2.35-5.84c2.42-6.64,6.99-10.43,14.17-10.76,4.02,.02,8.04,.08,11.04,3.4,1.09,2.8-.97,3.85-2.67,4.98,2.76,.9,5.08-.75,7.57-.93,3.33,.35,6.55-.1,9.67-1.37,4.15-.71,8.29-1.07,12.44-.18"/>
    <path class="cls-71" d="M231.9,56.71c-2.85-3.92-7.08-2.27-10.8-2.68-3.3-3.21-8.05,.47-11.42-2.43-1.14-1.95-1.2-3.96-.36-6.04,2.56-2.78,5.3-4.86,9.22-2.41,14.69,.93,27.83,6.53,40.52,13.47-4.18,2.67-8.83,3.1-13.62,2.81-4.21-2.4-9.54,.74-13.54-2.73Z"/>
    <path class="cls-71" d="M218.54,43.16l-8.23,2.77c-4.21,3.65-9.09,4.96-14.57,4.24-5.91-3.24-8.79-6.84-1.3-11.59,5.27,.88,10.8-.42,15.89,1.92,2.99,.11,6.18-.43,8.21,2.65Z"/>
    <path class="cls-71" d="M256.26,64.86c1.8-1.79,3.6-3.59,5.4-5.38,4.28,.35,7.96,1.94,10.75,5.32-2.08,2.71-8.37-.83-8.05,5.44-3.75,1.52-6.1,5.81-10.81,5.41-3.62-4.73,1.21-7.34,2.71-10.79Z"/>
    <path class="cls-71" d="M252.64,46.23l6.25-.28"/>
    <path class="cls-71" d="M175.1,37.72c.04-.82,.11-1.63,.22-2.44,8.02-.01,16.05-.03,24.07-.04,.1,.82,.18,1.64,.24,2.46-1.71,1.7-3.93,1.37-6.03,1.49-4.21,1.11-8.36,2.64-12.85,1.69-2.24-.42-4.22-1.29-5.65-3.16Z"/>
    <path class="cls-71" d="M244.98,40.68c.94,1.74,1.89,3.48,2.83,5.22-5.1,.32-9.45-1.37-13.1-4.9,1.92-.87,3.84-1.74,5.77-2.61,1.5,.77,3.01,1.53,4.51,2.29Z"/>
    <path class="cls-71" d="M194.07,37.86c1.85-.05,3.7-.1,5.55-.16,3.69,.46,7.93-1.16,10.71,2.8-5.41,0-10.82,0-16.23,0-.91-.58-1.22-1.17-.92-1.76,.3-.6,.59-.89,.9-.89Z"/>
    <path class="cls-71" d="M280.55,226.99c2.01,4.55-5.26,9.45,.51,13.86-.11,.8-.29,1.58-.54,2.35-1.72,.05-3.44,.1-5.17,.15-1.2-.47-2.29-1.13-3.29-1.97-2.53-2.33-4.45-4.96-4.27-8.64,1.92-7.1,6.24-8.87,12.76-5.76Z"/>
    <path class="cls-71" d="M261.65,97.28c0,.9,0,1.81,0,2.71-7.98,.21-11.15-8.76-18.54-9.7-.89-.95-1.28-2.08-1.16-3.38,1.22-2.42,3.42-3.51,5.83-4.32,4.05-.5,8.38-.27,11.15-4.21,6.42,5.51-3.97,13.44,2.73,18.91Z"/>
    <path class="cls-23" d="M248.14,83.76c-1.16,2.17-3.16,2.65-5.38,2.7-3.44-.85-6.77-2.22-10.43-2-4.04-.17-8.16-.04-11.47-2.99-.64-1.44-.43-2.74,.63-3.91,6.97-1.86,14.4,1.39,21.24-1.9,1.8,0,3.6,0,5.41,0,0,.9,0,1.79,0,2.69,1.57,1.81,1.69,3.61,0,5.42Z"/>
    <path class="cls-71" d="M269.76,75.66c2.69-.01,5.39-.02,8.08-.03-1.33,2.21-2.32,4.75-4.08,6.54-1.94,1.99-5.26,2.41-7.07,.44-3.52-3.84,2.63-4.31,3.06-6.95Z"/>
    <path class="cls-8" d="M248.14,83.76c0-1.81,0-3.61,0-5.42,3.59,0,7.19,.02,10.78,.02-.72,7.54-4.53,8.91-10.78,5.39Z"/>
    <path class="cls-36" d="M256.26,64.86c-.9,3.6-1.8,7.19-2.71,10.79-1.8,0-3.6,0-5.4,0,.2-5.48,3.76-8.43,8.1-10.79Z"/>
    <path class="cls-71" d="M199.46,281.01c-9.89,.13-19.79,.25-29.68,.38-.91,.06-1.83,.12-2.74,.18-3.12,2.17-6.41,2.52-9.88,.91-3.22-3.89-9.7-1.66-12.38-6.58-.35-1.45-.03-2.74,.96-3.86,6.1-3.99,12.18,.14,18.28,0,2.11,.12,4.19,.37,6.28,.72,1.43,.17,2.82,.49,4.2,.86,9.77,3.1,20.46-1.43,29.99,3.62,1.37,1.23,1.35,2.44-.07,3.61l-1.12-.1-1.09,.27c-.92,1.17-1.83,1.12-2.74-.01Z"/>
    <path class="cls-71" d="M172.38,275.74h-1.29l-1.28-.07c-.97-9.38-10.65-10.03-15.55-15.48,.03-6.53-10.68-7.62-7.9-15.56,3.3-1.92,6.8-1.74,10.35-1.04,9.09,2.44,18.37,1.08,27.57,1.34,6.65,.19,13.22,.31,18.94,4.3,7.62,2.82,12.69,.11,15.61-7.26,.68-1.1,1.53-2.03,2.54-2.83,6.18-1.97,11.64-6.1,18.46-6.12,1.34,.27,2.54,.84,3.63,1.66,1.74,2.22,2.22,4.83,2.41,7.53,.14,2.57,0,5.14-.53,7.67-.98,4.57-4.56,6.99-7.93,9.6-.91,.73-1.89,1.37-2.88,1.97-3.04,1.65-5.73,3.84-8.59,5.77-4.36,4.42-10.69,5.14-15.68,8.38-.87,.03-1.74,.05-2.6,.07-.57-.19-1.13-.37-1.7-.55-9.65-3.77-19.24-6.42-28.3,1.44-1.87,.44-3.68,.52-5.27-.82Z"/>
    <path class="cls-71" d="M210.26,275.6c4.02-5.7,10.58-7.57,16.27-10.74,4.18-.39,8.37-.79,12.28,1.34,.41,.44,.81,.89,1.21,1.33l-29.77,8.07Z"/>
    <path class="cls-71" d="M256.26,256.8c-4.54,3.73-11.3,4.54-14.02,10.65-.74,.04-1.47,.07-2.2,.08l-.05-.02c-2.21-2.39-7.44-2.78-5.32-8.04h0c7.03-2.3,13.52-8.95,21.61-2.67Z"/>
    <path class="cls-71" d="M172.38,275.74l5.53-.13c9.88-6.26,19.78-4.06,29.68-.09l.07,.15c-.03,.88-.06,1.76-.07,2.64-.72,.28-1.46,.38-2.23,.3-10.89-2.15-22.37,2.52-32.98-2.87Z"/>
    <path class="cls-71" d="M256.26,256.8c-7.2,.89-14.4,1.78-21.61,2.67,1.1-4.29,6.06-4.75,8.08-8.12,1.8-2.03,4.09-2.41,6.62-2,1.8,.39,3.43,1.17,4.95,2.19,.98,.73,1.73,1.65,2.24,2.77-.07,.84-.17,1.67-.29,2.5Z"/>
    <path class="cls-71" d="M256.55,254.3l-2.98-.27c-1.07-2.27,.21-3.69,1.8-5.02,3-1.87,6.07-2.94,9.42-.83,1.29,1.93,1.03,3.73-.51,5.4v.33c-2.57,.13-5.15,.26-7.72,.4Z"/>
    <path class="cls-71" d="M264.27,253.57l.1-4.9c-1.54-2.96-3.86-5.33-5.94-7.9-.65-3.8,2.15-5.16,4.72-6.69,1.13-.47,2.31-.68,3.53-.69,1.21,.25,2.23,.82,3.08,1.72l5.38,5.38c-2.73,2.1-3.34,5.58-5.35,8.15-1.16,2.41-2.71,4.37-5.52,4.91Z"/>
    <path class="cls-71" d="M269.79,248.66c-.12-3.97-.14-7.87,5.35-8.15,.07,.95,.14,1.9,.21,2.85-1.85,1.77-3.71,3.54-5.56,5.31Z"/>
    <path class="cls-71" d="M74.5,221.86c-2.76-.81-4.24-2.78-4.9-5.47,.07-2.76,.14-5.51,.2-8.27,1.81,2.68,3.62,5.35,5.44,8.03,2.5,1.21,3.92,2.86,2.39,5.74-1.05,.86-2.09,.85-3.12-.03Z"/>
    <path class="cls-44" d="M102.26,191.86c0-.9,0-1.8-.02-2.7-1.51-3.34-5.34-4.93-6.49-8.55-.23-1.82-.32-3.63,.58-5.32,6.33,1.36,3.72-3.75,4.58-6.34,.15-2.59-.21-5.2,.21-7.79,.02-1.8-2.71-.18-.93-.41,.73-.09,.87,.76,.7,1.86-.45,2.87,.96,6.17-2.05,8.44-1.56,.08-2.63-.58-3.27-1.99-1.29-9.54-2.54-19.05,5.54-26.61,12.44,2.88,12.61,11.46,10.22,21.43,.81-1.55,.23-3.41,.69-5.06,.88-3.13,3.19-4.02,6.05-3.79,2.83,.23,4.78,2.04,6.43,4.2,2.79,5.14,7.19,8.83,11.5,12.59,5.01,7.15,12.83,11.78,17.43,19.33,7.23,12.39,19.18,11.64,31.04,11.19,4.85-.29,9.44,1.43,14.21,1.86,5.52,.5,9.05,3.26,6.8,9.65-9.62,5.71-20.26,1.84-30.33,3.28-3.45,.49-9.64-3.14-9.4,4.87-.95,9.9-5.3,12.2-12.87,5.3-3.95-3.6-7.28-7.9-11.3-11.63-.17,2.58,1.3,5.18-.21,7.66-1.17,1.65-3.52,2.47-4.34,1.04-4.72-8.31-13.78-9.01-21.12-12.7-3.22-3.62,5.32-8.52-1.3-11.75-.95-.59-1.84-1.25-2.72-1.94-2.4-2.42-5.75-3.16-8.57-4.83-.36-.42-.71-.86-1.07-1.29Z"/>
    <path class="cls-71" d="M91.44,127.01c-3.51-.1-5.31-1.91-5.4-5.41-1.61-1.42-1.59-3.18-1.07-5.04,4.95-6.12,1.06-10.45-3-14.76-.15-2.52-.3-5.04,1.35-7.22h.02c3.34-1.87,7.62-1.29,10.61-4.1,3.71-1.8,7.25-3.95,11.26-5.1,1.26,0,2.39,.39,3.37,1.18,2.25,3.69,3.69,7.81,6.12,11.41,.84,2.62,.76,5.15-.75,7.53-1.48,1.45-3.29,2.04-5.31,2.13-12.93-5.39-9.37,3.57-8.66,10.04,.08,3.53-.2,6.95-2.63,9.79-2.07,1.12-4.05,1.15-5.92-.45Z"/>
    <path class="cls-52" d="M102.25,213.49c-.28-1.3-.14-3.41-.89-3.8-12.97-6.7-8.22-12.35,.9-17.83h.01c2.9,3.17,8.04,1.91,10.79,5.41h0c3.74,3.97,2.71,8.45,1.41,12.98,.15,1.63-.35,3.03-1.5,4.2-3.8,2.13-7.4,2.11-10.73-.96Z"/>
    <path class="cls-91" d="M91.44,127.01c1.8,0,3.61,0,5.41,0,2.84-2.24,5.77-2.48,8.8-.38,3.51,6.48,3.72,12.29-3.4,16.6-8.49,7.67-4.44,17.84-5.41,27.02,1.58,1.8,1.69,3.61,.01,5.42v5.4c-.9,.64-1.81,.64-2.71,0-1.46-13.52-3.7-27.1,3.62-39.82,4.39-7.63-7.2-8.16-6.33-14.23Z"/>
    <path class="cls-71" d="M83.32,94.57l.02,8.11c.89,.8,1.44,1.79,1.69,2.98,.16,2.96-.64,5.98,.67,8.83,.13,.57,.24,1.14,.35,1.71,0,1.8,0,3.6-.01,5.39-1.8,1.81-3.6,3.61-5.4,5.42-1.8,0-3.6,0-5.41,0-2.16-1.42-5.21-1.19-6.78-3.71-.58-1.73-.41-3.39,.31-5.04,4.2-4.35,6.49-9.5,6.48-15.6,2.69-2.69,5.39-5.39,8.08-8.08Z"/>
    <path class="cls-71" d="M102.25,213.49c3.59,0,7.18,0,10.77,0,1.48,1.11,1.99,2.67,2.11,4.43-.04,1.15-.27,2.26-.66,3.35-.48,1.04-1.08,2.01-1.73,2.95-1.85,2.39-1.85,5.32-2.31,8.13-.18,1.21-.52,2.36-.99,3.48-.63,1.07-1.48,1.92-2.56,2.52-1.24,.19-2.31-.15-3.22-1.02-2.06-4.58-6.9-5.54-10.56-8.07-2.93-6.86,2.49-9.6,6.45-13.06,.9-.9,1.8-1.8,2.69-2.7Z"/>
    <path class="cls-71" d="M99.56,216.2c3.53,6.64-9.12,6.79-5.42,13.5-1.86,.9-3.21-.03-4.49-1.23-2.15-2.66-4.51-5.24-4.51-8.99,.58-1.78,1.76-2.9,3.61-3.28,3.61-1.84,7.21-11.61,10.82,0Z"/>
    <path class="cls-71" d="M88.74,216.2l-2.71,2.7c-1.4,2.96-3.43,4.78-6.98,3.88-.47-.36-.94-.72-1.4-1.08-.8-1.85-1.6-3.7-2.4-5.55,4.51-3.95,9.01-3.96,13.49,.05Z"/>
    <path class="cls-52" d="M94.14,181.06c.91,0,1.81,0,2.72,0,3.58,1.52,5.39,4.21,5.38,8.11,.71-6.11-17.56,6.75-8.1-8.11Z"/>
    <path class="cls-71" d="M72.53,186.45c0-5.4,0-10.8,0-16.2,4.14,7.21,4.2,14.42-.04,21.61-1.63-1.81-1.63-3.62,.03-5.41Z"/>
    <path class="cls-71" d="M72.53,186.45c-.01,1.8-.02,3.61-.03,5.41-11.01,.98-2.73-7.55-5.29-10.73,1.77,1.77,3.55,3.55,5.32,5.32Z"/>
    <path class="cls-71" d="M69.84,124.31c2.94-1.4,5.53-2.09,5.39,2.69h0c-3.73,6.85,.9,14.75-2.71,21.62-.9,0-1.81,0-2.71-.01-.37-7.26,1.49-14.8-2.66-21.6,.78-1.02,1.05-2.55,2.7-2.7Z"/>
    <path class="cls-71" d="M72.52,148.62c1.2-7.17-2.7-14.98,2.71-21.62-1.19,7.17,2.72,14.98-2.71,21.62Z"/>
    <path class="cls-71" d="M69.84,124.31c-.9,.9-1.8,1.8-2.7,2.7-.96-.9-1.92-1.8-2.88-2.71-.27-4.84,.09-9.53,3.2-13.57,.81,.04,1.61,.06,2.41,.06,2.42,2.69,1.85,5.38-.02,8.06l-.02,5.46Z"/>
    <path class="cls-71" d="M94.81,67.92c1.78-1.84,3.56-3.69,5.35-5.53,4.32-.18,6.49-3.92,9.75-5.86,1.95,.11,3.9,.22,5.86,.33,2.91,13.28,1.97,14.96-8.48,15.2-4.24-3.2-7.18,1.14-10.75,1.9-1.29,0-2.37-.46-3.27-1.38-.62-1.94-.72-3.7,1.54-4.67Z"/>
    <path class="cls-71" d="M93.39,72.52l3.47,.44c3.46-1.55,6.11-6.31,10.86-2.75,13.53,2.09,3.33-10.13,8.05-13.35,1.78-.06,3.55-.12,5.33-.18,4-1.39,5.21,2.24,7.42,4.08,3.87,4.9,9.99,3.24,14.91,5.1,5.38,6.94-2.05,6.53-4.97,8.72-1.77,.63-3.6,1.02-5.46,1.28-4.17,.24-7.91,1.75-11.38,4.02-5,1.48-8.85,5.41-13.99,6.59-.9,0-1.8,0-2.7,0-2.06,.96-3.05-.27-3.83-1.84-.14-.71-.22-1.48-.22-2.26-1.63,.21-1.8,2-2.96,2.78-1.44,1.25-3.02,2.08-4.97,2.05-2.77-1.5-3.67-3.45-1.52-6.14-.15-2.13-.3-4.26-.46-6.39,.32-1.26,1.12-1.98,2.41-2.15Z"/>
    <path class="cls-71" d="M126.56,62.12c-1.82-1.81-3.64-3.63-5.46-5.44,1.05-2.6,2.93-4.31,5.59-5.18,3.04-.38,5.82,.02,7.95,2.52,.9,2.69,1.8,5.38,2.7,8.07-3.59,3.35-7.18,2.73-10.79,.03Z"/>
    <path class="cls-71" d="M134.64,54.02c-2.89-.09-6,.53-7.95-2.52,.96-1.73,1.91-3.47,2.87-5.2,.85-.14,1.69-.09,2.52,.16-.05,.74-.07,1.48-.05,2.22,1.1,.68,1.98,1.56,2.62,2.68,0,.89,0,1.77,0,2.66Z"/>
    <path class="cls-71" d="M137.34,72.91c.18-3.44,6.67-.48,5.43-5.36-1.59-1.8-1.59-3.6,0-5.41,.9-.9,1.81-1.8,2.71-2.7,2.83-3.17,6.85-3.73,10.6-4.9,8.98-1.99,17.64-5.17,26.68-6.97,3.55-.71,6.87-1.8,9.59,1.63,.52,1.15,.75,2.36,.69,3.62-2.34,6.73-3.29,14.42-11.59,17.15-1.55,1.03-3.17,1.9-4.94,2.5-5.98,1.64-12.2,.78-18.24,1.74-2.63,.26-5.37-1.32-7.94,.49-2.79,.96-5.63,1.16-8.53,.78-1.17-.22-2.28-.63-3.31-1.23-.39-.45-.77-.9-1.16-1.35Z"/>
    <path class="cls-71" d="M156.36,56.75c-2.88,3.9-7.13,2.3-10.88,2.7-3.3-6.11,2.53-6.15,5.42-8.14,.84-.93,1.87-1.41,3.13-1.35,1.91,.49,3.11,1.69,3.62,3.6,.02,1.25-.41,2.31-1.29,3.2Z"/>
    <path class="cls-71" d="M142.77,62.14c0,1.8,0,3.6,0,5.41-5.4-1.83-13.48,4.37-16.22-5.43,3.6-.01,7.19-.02,10.79-.03,1.81,.02,3.62,.03,5.43,.05Z"/>
    <path class="cls-71" d="M153.54,51.3h-2.64c-1.68-3.12-3.1-6.32-2.68-10.01,2.68-.18,5.35-.37,8.03-.55,3.31,4.6,.54,7.64-2.7,10.56Z"/>
    <path class="cls-71" d="M134.65,51.36c-.87-.89-1.75-1.79-2.62-2.68,3.54,0,7.07,0,11.31,0-2.74,4.15-6.06,1.97-8.69,2.68Z"/>
    <path class="cls-71" d="M153.54,51.3c.9-3.52,1.8-7.04,2.7-10.56,6.13-1.96,12.3-3.7,18.85-3.01,1.85,.04,3.69,.07,5.54,.11-1.88,9.6-10.74,15.51-24.33,16.24l-2.77-2.78Z"/>
    <path class="cls-71" d="M91.44,81.05c.06,2.22,.53,4.24,2.68,5.43,1.46,1.79,1.66,3.59,.03,5.39-1.63,8.84-6.61,4.18-10.8,2.68,.04-6.1-.88-12.77,8.1-13.51Z"/>
    <path class="cls-71" d="M69.86,118.85c0-2.69,0-5.37,.02-8.06,.01-3.88,1.79-6.6,5.36-8.14,5.95,7.97,2.57,12.84-5.38,16.2Z"/>
    <path class="cls-31" d="M280.55,191.87c-1.15,7.18-12.84,13.04-2.7,21.63-4.31,4-9.68,3.55-14.94,3.64-3.7-.02-7.41-.05-11.11-.19-3.04-.12-6-.58-8.69-2.15-1.22-.95-2.12-2.16-2.71-3.59-2.1-8.84-1.85-17.68-.06-26.52,2.7-7.15,8.45-11.24,15.27-8.5,7.52,3.02,8.72-1.94,11.44-5.93,2.7,0,5.41,0,8.11,0,5.89,6.18-.52,15.44,5.4,21.61Z"/>
    <path class="cls-81" d="M250.84,116.2c-.67,10.94,4.43,21.4,2.7,32.43-.57,.5-1.14,.99-1.7,1.49-3.79,1.47-7.32,1.37-10.31-1.78-3.32-5.86-2.2-12.31-2.48-18.56-2.09-13.47-12.77-13.63-22.86-14.72-6.99-1.98-16.91,1.94-19.17-9.52,6.04-15.73,28.24-20.83,45.71-10.53,4.22,6.47,6.69,13.63,8.12,21.19Z"/>
    <path class="cls-24" d="M250.84,116.2c-7.2-4.38-7.01-11.93-8.11-18.92-1.11-1.19-1.09-2.36,.06-3.51,11.85-4.8,13.6,9.17,21.56,11.62,13.65-2.85,14.42,7.19,16.21,16.21-1.6,7.56-12.45,6.57-12.38,14.79-3.63-.5-3.91-2.67-3.46-4.19,4.73-15.99,4.78-15.98-13.88-16Z"/>
    <path class="cls-57" d="M267.05,170.25c-.21,3.86-.42,7.71-.67,12.26-8.74-2.97-16.84-8.08-23.64,1.26-2.95,2.65,.76,10.17-6.87,9.4-1.3-.46-2.26-1.32-2.95-2.5-1.35-3.29-1.1-6.62-.36-9.98,1.22-3.85,1.56-8.05,4.38-11.29,1.59-1.23,3.43-1.93,5.35-2.4,11.59-1.31,5.13-13.71,11.25-18.36h0c8.4,4.77,6.17,16.18,13.5,21.62Z"/>
    <path class="cls-56" d="M280.55,191.87c-10.81-4.95-3.09-14.54-5.4-21.61,1.8-.9,3.59-1.8,5.39-2.7,0,.9,0,1.8,.01,2.71,0,7.2,0,14.41,0,21.61Z"/>
    <path class="cls-25" d="M264.35,105.38c-8.94-.13-11.56-12.91-21.61-10.81-1.62-1.8-1.43-3.6,0-5.41,10.13-3.09,12.83,6.82,18.91,10.83,.9,1.8,1.8,3.59,2.71,5.39Z"/>
    <path class="cls-41" d="M261.65,213.49h16.2c.01,1.8,.03,3.61,.04,5.41-.91,.9-1.82,1.8-2.74,2.7-2.36,1.64-4.9,.88-7.41,.55-2.59-.49-5.12-1.11-6.94-3.24-.83-1.98-.71-3.82,.84-5.43Z"/>
    <path class="cls-71" d="M269.75,218.99c1.8,.87,3.61,1.75,5.41,2.62,1.8,1.79,3.59,3.59,5.39,5.38-5.82-.25-10.41,1.15-10.79,8.13-.91,0-1.82-.01-2.74-.02-2.18-2.05-4.18-4.21-4.4-7.41-.01-1.17,.22-2.29,.66-3.37,1.52-2.53,4.67-3.11,6.46-5.33Z"/>
    <path class="cls-93" d="M150.87,72.97c1.78-3.02,3.6-.27,5.4-.04,7.19-1,14.96,2.57,21.62-2.7,.9-.9,1.8-1.79,2.71-2.69,2.73-2.15,7.17-1.61,10.14-2.16,2.47,4.14,5.56,5.87,9.83,6.91,2.72,.62,5.98,3.2,7.04-2.02l13.51-.02h0c0,1.79,0,3.59,0,5.39-.3,.91-.3,1.81,0,2.72,0,.89,.01,1.79,.03,2.68-.57,2.56,5.31,2.11,2.61,5.68-8.89,6.18-17.91,7-27.27,.99-3.04-1.95-6.6-2.52-10.19-2.81-7.91-.37-15.8,.56-23.67,0-4.76-.35-9.79-.26-12.87-5.04-.89-2.51-.54-4.81,1.13-6.9Z"/>
    <path class="cls-71" d="M191.4,54.03v-2.7c1.32-1.65,3.14-1.48,4.94-1.33,4.64,.6,9.49-.98,13.97,1.32,3.72,.4,7.96-1.26,10.79,2.71-7.23-1.84-8.54,6.17-13.49,8.11-2.15,2.24-4.75,2.5-7.6,1.76-3.87-2.41-9.19-3.56-8.61-9.87Z"/>
    <path class="cls-71" d="M221.12,70.25c5.19-10.48,13-3.15,19.71-3.32-6.04,4.73-13.07,2.72-19.71,3.32h0Z"/>
    <path class="cls-28" d="M199.52,75.65c-1.89-3.52-11.45,.63-8.12-8.11-.24-5.44,3.42-4.61,6.8-4.24,2.47,1.05,5.2,1.68,6.67,4.29,.02,.88,.04,1.76,.06,2.64-.9,2.71-3.86,3.36-5.42,5.43Z"/>
    <path class="cls-78" d="M199.52,75.65c.07-3.54,1.92-5.31,5.42-5.43,.89,.01,1.79,.03,2.68,.05,.44,2.29,5.53,2.96,2.82,6-3.46,3.87-7.18-1.25-10.91-.62Z"/>
    <path class="cls-71" d="M231.9,56.71c4.54,.76,9.75-1.78,13.54,2.73-2.7,1.64-5.39,1.67-8.1,.02-5.4,2.02-10.81,2.02-16.21,0,2.8-4,7.05-2.32,10.77-2.74Z"/>
    <path class="cls-37" d="M221.1,78.37c-1.83-.91-1.82-1.82,0-2.72,7.21,0,14.41,0,21.62,.01-6.65,5.41-14.46,1.5-21.63,2.71Z"/>
    <path class="cls-61" d="M204.87,67.58c-2.22-.07-4.23-.55-5.4-2.71-.67-.62-.89-1.23-.65-1.83,.24-.6,.47-.9,.7-.9,2.7,0,5.4,0,8.1,0,1.89,1.43,3.78,2.87,6.62,5.02-3.8,.17-6.58,.3-9.36,.42Z"/>
    <path class="cls-71" d="M221.13,59.45c5.4,0,10.81,0,16.21,0-5.41,4.05-10.81,4.09-16.21,0Z"/>
    <path class="cls-71" d="M210.32,51.32c-4.5,3.07-9,3.07-13.5,0-.92-.6-1.23-1.19-.92-1.79,.3-.6,.61-.9,.92-.9,4.16-2.58,8.76-3,13.5-2.7,0,1.8,0,3.6,0,5.39Z"/>
    <path class="cls-71" d="M196.81,48.63c0,.9,0,1.79,0,2.69-1.8,0-3.61,0-5.41,0-7.82-2-15.1,.77-22.18,3.18-4.3,1.47-8.42,2.35-12.86,2.24-.04-.89-.05-1.79-.05-2.68,7.99-5.6,19.51-5.9,24.33-16.24,4.48,0,8.95,.01,13.43,.02,.02,.88,.03,1.77,.03,2.65-4.83,4.62-.2,6.09,2.71,8.12Z"/>
    <path class="cls-82" d="M188.7,81.06c2.59,.49,6.18,.06,7.6,1.62,9,9.86,18.17,5.89,27.52,1.08,3.09-2.93,7.72,.34,10.79-2.68,3.95-.08,7.86-.1,8.14,5.38-.01,.9-.02,1.8-.02,2.7,0,1.8,0,3.6,0,5.41,0,.9,0,1.8,0,2.7-13.52-9.53-26.52-1.14-39.61,1.39-2.73,.53-3.42,3.9-3.62,6.72-1.16,.98-2.4,1.11-3.74,.41-4.04-2.72-7.75-5.88-11.2-9.29-3.27-3.23-9.22-5.47-7.37-11.35,1.71-5.44,8.33-.65,11.5-4.09Z"/>
    <path class="cls-7" d="M234.62,81.08c-2.84,3.93-7.07,2.29-10.79,2.68-1.92-.38-3.85-.76-5.77-1.15,1.02-.52,2.05-1.04,3.07-1.56,4.5,.01,8.99,.02,13.49,.03Z"/>
    <path class="cls-71" d="M164.37,275.57c-6.57,.56-12.46-4.1-19.16-2.53-5.62,2.51-9.65-1.78-14.33-3.35-1.19-.75-2-1.8-2.46-3.13,.04-1.5,.7-2.63,1.97-3.43,6.6-2.88,13.33-4.84,20.62-3.02,5.56,4.19,17.38,3,13.37,15.46Z"/>
    <path class="cls-71" d="M164.37,275.57c-1.37-7.62-7.26-10.7-13.5-13.43-.02-4.53,2.26-4.48,5.41-2.71,6.68,3.61,18.77,2.71,13.53,16.25-1.81-.03-3.62-.07-5.44-.1Z"/>
    <path class="cls-71" d="M156.28,259.42c-2.22,.06-4.24,.54-5.41,2.71-7.16,.84-14.31,1.69-21.47,2.53-8.99-3.54-17.9-7.22-25.09-14-2.86-1.62-5.51-3.4-5.83-7.11,1.04-3.16,1.81-6.65,6.46-5.73h0c.99,.78,2.13,1.97,3.29,.75,1.05-1.1,.28-2.42-.58-3.47,0-.91,.01-1.82,.02-2.72,3.72-2.63,1.73-8.1,5.37-10.76v-.03c1.22-.73,2.67-.97,3.74-.22,10.38,7.22,18.51,17.09,28.68,24.56,4.64,3.67,12.66,4.63,10.8,13.5Z"/>
    <path class="cls-86" d="M145.29,246.83c-1.46-.97-2.69-3.62-4.19-3.69-8.55-.44-14.68-2.75-17.12-12.55-.92-3.68-7.13-6.04-10.93-9,0-.91,.01-1.81,.02-2.72,5.84-4.56,9.95-.1,14.37,2.75,4.52,2.93,8.01,7.21,12.84,9.73,1.75,.53,3.44,1.2,5.08,1.98,3.51,2.24,7.33,3.93,10.87,6.14,.84,.92,1.33,2.01,1.51,3.24-.1,.6-.21,1.2-.32,1.8-.38,.48-.76,.95-1.15,1.43-3.6,0-7.38,.9-10.98,.9Z"/>
    <path class="cls-65" d="M240.03,235.09c-6.59,.78-11.4,7.71-18.86,5.48-.73-1.01-.96-2.11-.64-3.32,.51-1.09,1.14-2.12,1.85-3.09,6.1-6.41-1.48-18.07,8.76-22.92,4.25-1.21,8.19-.85,11.59,2.25h0c1.76,1.82,3.7,3.53,3.85,6.33-1.19,5.51-2.78,10.86-6.55,15.27Z"/>
    <path class="cls-71" d="M207.59,275.53c-9.89,.03-19.79,.06-29.68,.09,7.72-10.66,19.79-10.69,29.68-.09Z"/>
    <path class="cls-86" d="M204.91,254.03c-8.79-7.15-19.28-4.85-29.31-5.52-6.46-.43-13.48,2.58-19.33-2.58l.02-.02c16.35-6.91,33.09-3.97,49.8-1.96,4.86,3.97,2.91,7.15-1.18,10.07Z"/>
    <path class="cls-92" d="M240.03,235.09c-1.15-6.38,1.8-11.39,5.4-16.18,.9-.71,1.91-.88,3.02-.59,2.27,1.62,4.21,3.56,5.85,5.83,.36,1.13,.39,2.26,.13,3.41-.66,1.68-1.63,3.17-2.72,4.6-2.48,2.54-4.57,6.33-9,2.98-.9,0-1.79-.02-2.69-.04Z"/>
    <path class="cls-48" d="M221.11,237.82c.02,.92,.03,1.83,.05,2.75-.02,.89-.03,1.78-.04,2.67-1.95,1.57-4.07,2.79-6.63,3.03-4,.33-7.57-1.72-11.55-1.97-4.78-.29-5.56-3.4-3.32-7.39,7.34-3.91,14.54-4.49,21.48,.91Z"/>
    <path class="cls-26" d="M174.36,259.81c6.03-3.59,12.03-4.04,20.68-.35-8.6,3.91-14.66,2.51-20.68,.35Z"/>
    <path class="cls-29" d="M215.73,243.25c1.8,0,3.6,0,5.4,0-1.39,9.64-8.1,11.28-16.22,10.79,.9-2.7,1.8-5.41,2.7-8.11,2.17-2.53,5.97-.07,8.12-2.67Z"/>
    <path class="cls-71" d="M234.66,259.47c1.77,2.68,3.55,5.36,5.32,8.04-4.54-.59-9.68,1.82-13.45-2.65,1.51-3.61,4.2-5.43,8.13-5.39Z"/>
    <path class="cls-71" d="M242.72,235.13c4.19,.42,5.31-3.76,8.11-5.43,1.61,1.39,2.13,3.22,2.16,5.26-.44,3.96-1.5,7.69-4.04,10.87-3.24,1.92-4.63-.56-6.21-2.62v-8.09Z"/>
    <path class="cls-71" d="M198.3,264.22c3.86-3.49,7.06-1.6,10.24-1.31,0,1.55,.33,2.78-.05,3.07-3.34,2.53-6.46,1.86-10.19-1.76Z"/>
    <path class="cls-71" d="M242.74,243.22l5.41,2.7c1.15-.85,2.28-.87,3.39,.09,.92,1.93,.96,3.74-.7,5.32-2.7,0-5.4,0-8.1,0,0-2.71,0-5.41,0-8.12Z"/>
    <path class="cls-71" d="M250.84,251.34c0-1.8,0-3.59,0-5.39,1.41-2.66,3.1-4.56,6.3-2.28,1.52,2.72,.9,5.21-.82,7.58-.92,.92-1.83,1.85-2.75,2.77-.91-.9-1.82-1.79-2.73-2.69Z"/>
    <path class="cls-71" d="M256.32,251.25c-.02-2.67-.03-5.34-.05-8.01,.3-1.5,1.19-2.4,2.68-2.71,5.37,.34,8.34,2.27,5.42,8.14-2.68,.86-5.37,1.72-8.05,2.58Z"/>
    <path class="cls-71" d="M258.95,240.53c-.89,.9-1.79,1.81-2.68,2.71-1.81,.9-3.62,1.8-5.42,2.71-.9,0-1.8-.02-2.7-.03-.42-3.93,.85-7.44,2.7-10.79,1.34-1.39,2.94-2.31,4.87-2.63,1.26-.17,2.52-.17,3.79-.04,1.93,.32,3.65,1.04,4.86,2.67-1.8,1.8-3.61,3.6-5.41,5.4Z"/>
    <path class="cls-71" d="M264.36,235.13c-1.81,0-3.61-.01-5.42-.02-2.57-5.6-.83-8.32,5.38-8.06,.9,2.68,1.8,5.37,2.7,8.05-.89,0-1.77,0-2.66,.03Z"/>
    <path class="cls-71" d="M80.28,229.88l-1.06-.1-1.05,.12c-1.22-2.68-2.44-5.36-3.66-8.04,1.04-.05,2.09-.11,3.14-.16l.38-.13c1.9,2.08,5.37,2.41,6.27,5.61,.11,1.2-.21,2.27-.95,3.22-1.14,.54-2.16,.4-3.06-.52Z"/>
    <path class="cls-22" d="M221.11,237.82c-7.2,0-14.4,0-21.6,0-4.03-6.43-7.23-14-17.06-12.56-2.01,.04-4,.03-6.01-.05-4.37-.06-8.65-.38-12.05-3.61-2.54-.22-6.41,.59-6.73-2.52-.48-4.66,3.73-5.47,7.38-5.5,13.29-.13,26.59-.07,39.88-.09,1.47-1.53,3.22-1.71,5.14-1.11,6.59,7.39,17.82,12.27,13.77,25.43-.9,0-1.81,0-2.71,0Z"/>
    <path class="cls-15" d="M102.25,143.22c3.22-5.01,2.79-10.62,2.65-16.18-2.02-2.11-2.33-4.52-1.26-7.16,.76-1.12,1.81-1.64,3.17-1.47,3.68,2.14,3.59,6.31,5.19,9.58,.55,1.07,1.04,2.18,1.54,3.27,1.3,2.3,2.07,4.94,5.09,7.18,3.92-3.41,.98-10.62,6.42-13.04,2.8-.9,5.4-.63,7.74,1.27,4.23,7.03,1.69,13.73-.92,20.43-4.92,3.79,.7,13.25-8,15.04-8.64-9.7-10.82-3.74-12.36,5.72,.72-10.18-2.73-18.03-9.26-24.63Z"/>
    <path class="cls-66" d="M164.39,221.6h13.51c.56,4.81-4.27,7.76-4.25,12.4-2.14,3.61-5.85,4.66-9.47,5.88-2.64,.66-5.23,.67-7.72-.6-3.8-1.03-7.71-1.79-11.02-4.15l-5.36-.03c-2.73-3.6-3.29-7.2,0-10.8,1.66-3.34-3.82-8.15,1.41-10.33,4.8-2,6.58,2.91,9.08,5.8q9.11,10.54,13.82,1.83Z"/>
    <path class="cls-10" d="M150.88,191.87c-4.65-6.95-14.21-9.7-16.22-18.92-1.77-2.29-2.36-4.76-1.15-7.52,2.79-3.28,5.86-2.12,8.97-.59,1.69,.94,3.28,2.04,4.79,3.24,.98,.82,1.7,1.83,2.21,3,.82,1.92-1.14,5.1,.94,5.74,1.67,.52,2.98-2.71,4.71-4.05,1.18-.85,2.48-1.25,3.93-1.24,9.13,4.97,14.08,11.37,7.47,21.74-5.5,2.75-10.74,2.56-15.64-1.41Z"/>
    <path class="cls-77" d="M210.32,213.5c-1.8,0-3.6,0-5.4,0-3.78-11.84-14.87-4.19-21.62-8.11-2.61-2.55-8.53-3.45-4.61-9.25,6.89-2.65,13.31,.75,19.94,1.51,8.84,5.85,16.61,1.17,24.55-2.43,3.62-1.64,6.26-6.99,11.44-3.34h.02c4.83,8.11-.52,12.32-6.58,15.3-4.66,2.29-9.41,4.38-13.89,7.05-1.42,.51-2.71,.27-3.86-.71Z"/>
    <path class="cls-51" d="M177.9,197.28c1.8,2.7,3.6,5.4,5.4,8.1-14.43,3.03-28.44-2.81-32.42-13.51,5.41,0,10.81,0,16.22-.01,3.38-2.71,6.93-3.2,10.71-.86,1.64,2.07,1.83,4.16,.09,6.28Z"/>
    <path class="cls-31" d="M140.07,224.3c0,3.6,0,7.2,0,10.8-9.99-3.76-14.63-16.43-27-16.24-.02-1.79-.04-3.58-.06-5.37,.01-.91,.02-1.81,.03-2.72,.9-1.26,1.81-1.32,2.71,0,10.92-.56,18.84,4.28,24.32,13.51Z"/>
    <path class="cls-45" d="M134.69,164.84c0,2.7-.02,5.41-.02,8.11-4.59-2.61-10.73-3.68-10.8-10.81,7.2-2.34-4.86-12.39,5.4-13.51,9.8,2.07,10.42,3.94,5.42,16.21Z"/>
    <path class="cls-3" d="M115.76,210.79c-.9,0-1.8,0-2.71,0,0-4.5,0-9.01,.01-13.51,4,.11,8.68-.34,9.74,4.77,1.07,5.16-5.35,5.26-7.04,8.75Z"/>
    <path class="cls-85" d="M113.06,197.28c-4.63,.24-8.77-.46-10.79-5.42,4.23,.54,9.92-1.81,10.79,5.42Z"/>
    <path class="cls-15" d="M99.54,170.23v-13.09l2.71-.11v13.21c-.91,.95-1.81,.94-2.71-.01Z"/>
    <path class="cls-39" d="M99.54,170.23c.9,0,1.81,0,2.71,.01-.21,3.39,1.23,8.42-5.4,5.41,0-1.81,0-3.61-.01-5.42,.9,0,1.8,0,2.7-.01Z"/>
    <path class="cls-88" d="M107.64,86.47c2.83-5.5,7-8.77,13.52-8.12,.95-1.03,2-1.19,3.16-.35,3.11,7.07-4.56,9.23-6.37,14.07-1.33,2.02-2.61,4.1-4.9,5.21-7.22-.9-4.88-6.57-5.4-10.81Z"/>
    <path class="cls-88" d="M96.86,116.2c-.32-4.5-4.4-9.44,.32-13.34,3.92-3.24,6.92,1.76,10.47,2.54,3.49,7.41-1.47,10-7,12.26-1.46,.03-2.72-.46-3.79-1.45Z"/>
    <path class="cls-32" d="M113.04,97.28c.07-2.23,.54-4.25,2.71-5.42,4.64-6.73,10.86-6.92,17.75-4.32,1.31,.76,1.96,1.92,1.96,3.43-2.56,4.86-8.19,3.45-11.94,5.87-5.41,2.14-3.31,10.91-10.27,11.68-.72-.66-.99-1.35-.81-2.06,.18-.73,.39-1.09,.61-1.09,0-2.7,0-5.39,0-8.09Z"/>
    <path class="cls-70" d="M113.05,105.37c0,.9,0,1.81,0,2.71,1.82,4.46-1.36,7.03-3.74,9.91-.55,.31-1.11,.61-1.67,.91-.9,0-1.79,0-2.69,0-3.04,1.59-5.61,2.25-5.4-2.69,4.31-2.4,7.88-5.35,8.1-10.82,1.8,0,3.59-.01,5.39-.02Z"/>
    <path class="cls-69" d="M99.56,116.21c1.17,2.18,3.19,2.63,5.4,2.69-.02,2.71-.04,5.43-.06,8.14-2.68-.01-5.37-.02-8.05-.04,0-3.6,0-7.2,.01-10.81,.9,0,1.8,0,2.7,.01Z"/>
    <path class="cls-71" d="M94.14,91.88c0-1.8-.02-3.6-.03-5.39,.91-.91,1.82-1.83,2.73-2.74,1.8-1.51,3.6-1.66,5.39,0,.9,.9,1.8,1.81,2.69,2.71-2.03,4.94-6.17,5.65-10.8,5.41Z"/>
    <path class="cls-71" d="M83.34,105.39v-2.71c3.51,.15,7.42-.2,7.91,4.77,.41,4.1,.48,8.19-5.2,8.75h-.01c-2.62-3.18,.5-7.79-2.7-10.81Z"/>
    <path class="cls-71" d="M83.34,105.39c8.85,1.61,4.16,6.61,2.7,10.8-8.85-1.61-4.16-6.61-2.7-10.8Z"/>
    <path class="cls-71" d="M83.21,229.81c0-.91-.01-1.81-.02-2.72,2.71-2.53,5.46-1.96,8.22-.11,.91,.91,1.81,1.81,2.72,2.72,9.21-4.76,10.74,.71,10.81,8.12-1.83,1.81-3.67,3.62-5.5,5.43-9.41,.35-13.75-5.42-16.23-13.44Z"/>
    <path class="cls-90" d="M113.05,221.62c-.52,4.22,1.89,9.9-5.37,10.76,.46-4.25-1.87-9.9,5.37-10.76Z"/>
    <path class="cls-53" d="M107.66,235.1c2.82,.43,5.63,1.05,4.09,4.9-.61,1.53-2.1,3.99-3.01,3.91-3.42-.29-3.48-3.42-3.79-6.09,.9-.91,1.81-1.81,2.71-2.72Z"/>
    <path class="cls-71" d="M91.42,226.98c-2.74,.03-5.48,.07-8.22,.11-1.73-1.84-3.45-3.68-5.18-5.52,2.67-.89,5.34-1.78,8.01-2.67,1.8,2.69,3.59,5.39,5.39,8.08Z"/>
    <path class="cls-71" d="M83.21,229.81c4.2,5.94,9.37,10.71,16.24,13.44,1.86,1.78,3.73,3.56,5.59,5.34,1.59,1.62,4.5,2.7,2.39,5.83-5.26,.04-7.83-6.28-13.35-5.62-1.74-1.89-3.48-3.77-5.21-5.66-2.24-4.82-7.91-7.42-8.58-13.25,.98-.02,1.95-.05,2.93-.07Z"/>
    <path class="cls-71" d="M123.62,267.35c-2.49-.88-4.99-1.76-7.48-2.64-2.9-3.43-5.8-6.86-8.71-10.29-.8-1.94-1.6-3.89-2.39-5.83,2.69,.45,5.71-1.1,6.9,3.76,1.43,5.84,5.9,8.21,12.18,5.65,8.94-3.64,5.03,3.24,5.29,6.67-.09,.69-.15,1.39-.18,2.09-1.59,2.79-3.53,2.37-5.6,.59Z"/>
    <path class="cls-71" d="M107.72,70.21c-3.62,.92-7.24,1.83-10.86,2.75,3.36-1.96,4.21-13.84,10.86-2.75Z"/>
    <path class="cls-19" d="M134.66,89.16c-6.4,.19-13.01-1.04-18.91,2.7-1-6.73,8.23-7.31,8.1-13.51,1.14-4.14,5.64-3.26,8.11-5.4,1.79-.01,3.58-.03,5.37-.04l.04,.06c2.51,5.97,1.71,11.39-2.72,16.19Z"/>
    <path class="cls-64" d="M102.25,83.75c-1.8,0-3.6,0-5.39,0,.6-1.17,1.14-2.36,1.8-3.49,1.55-2.68,3.67-6.36,6.81-3.39,3.78,3.58-2.87,4.15-3.21,6.88Z"/>
    <path class="cls-12" d="M131.97,72.95c-2.7,1.8-5.41,3.6-8.11,5.4-.9,0-1.8,0-2.7,0,2.05-4.91,6.18-5.66,10.81-5.4Z"/>
    <path class="cls-20" d="M134.66,89.16c.91-5.4,1.81-10.8,2.72-16.19,.91,.02,1.81,.04,2.72,.06,1.65,1.85,3.84,3.04,5.68,4.66,8.82,5.35,18.57,10.17,13.53,23.51-1.9,6.5-5.69,11.39-12.01,14.15-12.55,.74-14.73-7.75-15.54-17.48,.24-2.35,1.44-4.24,2.91-6,0-.9,0-1.81,0-2.71Z"/>
    <path class="cls-85" d="M199.52,62.15c-.02,.91-.03,1.82-.05,2.73-2.97,.05-6.12-.48-8.07,2.66-3.6,0-7.2,0-10.8,0,7.36-1.5,4.47-11.2,10.81-13.51,2.7,2.7,5.41,5.41,8.11,8.11Z"/>
    <path class="cls-89" d="M177.89,70.23c-6.07,10.04-13.93,5.69-21.62,2.7,6.65-5.36,14.45-1.5,21.62-2.7Z"/>
    <path class="cls-68" d="M142.77,78.36c-2.15-1.15-2.64-3.13-2.68-5.34,3.59-.02,7.18-.04,10.77-.06,0,1.8,0,3.59,0,5.38-2.7,2.41-5.4,1.89-8.1,.01Z"/>
    <path class="cls-22" d="M213.02,213.49c2.46-4.58,5.81-7.56,11.37-8.29,7.48-.98,10.53-6.04,10.26-13.33,5.89,.48,4.55-6.25,8.09-8.12,0,9.91,0,19.82,0,29.73-4.5,0-9,0-13.5,0-5.4,2.78-10.81,2.98-16.21,0Z"/>
    <path class="cls-43" d="M261.65,213.49l.02,5.4c-.93,1.11-2.1,1.86-3.5,2.26-2.92,.56-5.63,.22-7.92-1.88-1.02-2.05-1.04-3.99,.59-5.77h10.8Z"/>
    <path class="cls-80" d="M250.84,213.49c0,1.8,0,3.6,0,5.4-.9,.96-1.8,.97-2.71,.01-.9,0-1.8,0-2.7,0-2.17-1.17-2.65-3.19-2.7-5.42,2.7,0,5.41,0,8.11,0Z"/>
    <path class="cls-54" d="M148.17,113.49c1.92-4.98,8.38-7.22,8.12-13.5,14.92-8.87,27.33,1.22,40.52,5.38,.9,0,1.8,0,2.7,.01,2.72,11.06,14.44,1.13,18.91,8.1-5.35,4.91-12.99,3.17-18.86,6.58-4.09,.71-8.15,.08-11.7-1.77-11.93-6.21-23.08-5.01-33.8,2.76-3.57,1.08-7.04,1.03-10.37-.84-4.37-6.14,3.26-4.3,4.48-6.72Z"/>
    <path class="cls-87" d="M199.51,118.89c3.94-10.1,12.65-3.44,18.91-5.41,9.32-2.53,21.25,4.11,24.31,13.52-5.95,5.15-13.17,3.33-20,3.64-2.28,.07-4.53-.19-6.77-.63-5.79-3.24-15.98-.03-16.46-11.13Z"/>
    <path class="cls-76" d="M221.12,127.01h21.61c0,7.21,0,14.41,.01,21.62,5.13,7.21,5.14,14.41-.02,21.61-1.8,0-3.6,0-5.39,0-8.82-13.13-9.71-29.23-16.21-43.23Z"/>
    <path class="cls-55" d="M242.72,170.24c0-7.2,.01-14.41,.02-21.61,3.6,0,7.2,0,10.8,0,0,3.91-.35,7.85,.07,11.72,.91,8.51-3.51,10.72-10.89,9.89Z"/>
    <path class="cls-18" d="M234.63,191.87c-6.4,3.26-12.24,7.41-18.88,10.48-7.06,3.26-11.42,2.68-16.24-2.37-3.23-2.04-9.77-2.89-3.05-8.5,1.16-.49,2.36-.63,3.6-.43,3.2,.49,5.42,4.57,9.04,2.7,.63-.32-.88-3-1.32-4.66-1.56-8.53-.06-15.86,7.96-20.68,2.17-1.03,4.47-1.48,6.85-1.62,9.97-.27,16.43,2.44,12.04,14.28v10.81Z"/>
    <path class="cls-46" d="M234.63,181.06c1.75-11.43-5.75-11.29-13.52-10.81-4.79-5.69-3.63-12.29-2.94-18.81,3.01-8.52-9.15-15.55-2.46-24.43,1.8,0,3.6,0,5.4,0,4.82,3.01,8.41,6.1,8.71,12.95,.45,10.42,8.05,19.39,7.49,30.29-.39,3.74,1.25,7.98-2.7,10.82Z"/>
    <path class="cls-63" d="M258.96,218.91c.9,0,1.81-.01,2.71-.02,2.69,.03,5.38,.06,8.07,.1-.1,3.51-1.96,5.24-5.42,5.33-1.84,1.5-3.77,1.72-5.8,.4-1.17-2.03-1.18-3.98,.43-5.81Z"/>
    <path class="cls-71" d="M258.95,224.3c1.79,0,3.59,0,5.38,.01,0,.91,0,1.82,0,2.73-3.6,1.48-5.37,4.18-5.38,8.06-.9,0-1.81,0-2.71,0-2.54-2.15-2.7-5.1-2.69-8.1,0-.9,0-1.8,0-2.7,1.8-1.44,3.6-1.63,5.4,0Z"/>
    <path class="cls-60" d="M196.81,105.37c-14.11,2.73-26.3-8.94-40.52-5.38,6.41-14.04-7.77-15.19-13.52-21.62,2.7,0,5.4,0,8.1-.01,12.27,5.71,25.25,1.34,37.83,2.71-1.99,3.74-6.7,1.7-9.59,4.66,3.75,8.42,14.81,10.49,17.7,19.65Z"/>
    <path class="cls-71" d="M145.97,267.62c2.39,.22,6.79,.19,6.86,.71,.43,3.34-2.51,1.49-4.02,1.78-1.06,.21-2.29-.47-3.45-.75,.2-.58,.4-1.16,.61-1.74Z"/>
    <path class="cls-82" d="M164.39,237.82l8.11-5.41c2.86-4.35,9.51-4.9,10.81-10.81,10.45,.36,18.46,3.16,16.21,16.22,2.74,9.8,10.84,3.54,16.22,5.43-1.97,3.13-5.15,2.57-8.12,2.67-17.11,0-34.21,0-51.32,0,0-.9,0-1.8,0-2.69,9.52-6.55,19.79,1.17,28.54-1.43,2.76-.3,1.57-3.31,1.96-1.55,.07,.3-.05,1.93-.48,2.03-7.49,1.7-15.35,.02-21.93-4.45Z"/>
    <path class="cls-74" d="M164.39,237.82c7.94,.62,15.48,3.87,23.65,5.41h-31.74c-.03-.89-.04-1.77-.04-2.66-.92-.62-1.23-1.23-.91-1.84,.31-.6,.62-.91,.94-.91h8.11Z"/>
    <path class="cls-82" d="M156.28,237.82c0,.91-.01,1.83-.02,2.74-4.62,.22-8.74-.56-10.82-5.43,3.95-.45,7.46,.83,10.84,2.68Z"/>
    <path class="cls-31" d="M213.02,213.49c5.4-1.87,10.81-1.87,16.21,0-1.94,8.08,1.88,17.43-5.4,24.32,2.1-11.78-12.51-14.27-13.51-24.32,.9,0,1.8,0,2.7,0Z"/>
    <path class="cls-65" d="M258.95,224.3c-1.8,0-3.6,0-5.4,0-3.51-.09-5.31-1.89-5.41-5.4,.9,0,1.8,0,2.71-.01,2.7,0,5.41,.01,8.11,.02,0,1.8,0,3.6-.01,5.4Z"/>
    <path class="cls-71" d="M253.54,227c3.17,1.94,2.61,5.13,2.69,8.1-1.79,0-3.59,.02-5.38,.02,0-1.81-.01-3.62-.02-5.43,.9-.9,1.81-1.8,2.71-2.7Z"/>
    <path class="cls-73" d="M183.3,221.6c1.03,2.82,10.05,6.22-.65,8.2-3.43,.63-6.77,1.73-10.16,2.61-5.74-7.38,2.85-7.58,5.41-10.8,1.8,0,3.6,0,5.4,0Z"/>
    <path class="cls-4" d="M142.77,118.89c3.61,0,7.21,0,10.82,0,1.96,2.17,2.7,5.04,1.01,7.15-6.64,8.3-5.05,18.07-5.52,27.5-.47,5.4-1.11,10.72-6.29,13.99-2.7-.9-5.39-1.8-8.09-2.71-1.86-5.39,4.34-13.47-5.42-16.21,.15-7.3,4.04-14.13,2.7-21.62,2.48-4.19,4.45-9.07,10.8-8.12Z"/>
    <path class="cls-59" d="M123.87,127.01c0,.45,.07,.9-.01,1.34-1,5.4,2.92,14.58-2.66,15.53-7.45,1.27-9.17-7.72-10.84-14.16,1.45-1.61,3.63-1.32,7.13-1.51-4.2-1.61-5.44,.55-7.14,1.5-3.95-2.84-2.31-7.07-2.69-10.8h0c2.91-4.62,7.03-8.13,10.87-11.91,3.07-3.34,6.69-4.82,10.57-1.81,3.64,2.83,3.33,7.04,2.42,11.08-1.04,4.61-4.59,7.52-7.64,10.75Z"/>
    <path class="cls-9" d="M123.87,127.01c-.31-3.82,1.43-6.57,3.76-9.58,2.52-3.25,3.22-8.06-.59-10.81-4.31-3.11-5.65,2.8-8.59,4.17-2.42-3.14-1.58-6.12,.42-9.06,3.73-2.66,8.01-4.12,12.31-5.55,1.33-.17,2.49,.21,3.49,1.1,.7,8.57,2.16,16.51,13.5,16.21-1.8,1.8-3.6,3.6-5.4,5.4-4.75,1.18-4.98,8.37-10.8,8.12-2.7,0-5.4,0-8.1,0Z"/>
    <path class="cls-34" d="M177.88,191.88c-3.6,0-7.19-.01-10.79-.02,.33-8.55-1.87-15.64-10.79-18.9-3.12-3.11-3.01-6.6-1.22-10.29,5.12-4.51,9.32-.81,13.69,1.5,4.67,3.3,11.52,4.43,12.14,11.88,.31,3.73,1.36,7.16,4.13,9.89,1.28,2.28,2.78,4.56,.3,6.99-2.73,1.39-5.21,.99-7.45-1.06Z"/>
    <path class="cls-84" d="M156.29,162.14c0,3.61,.01,7.21,.02,10.82,0,.9-.01,1.8-.02,2.7-6.62,4.08-5.81-3-8.11-5.41-.9,0-1.79,0-2.69-.01-1.59-8.18,1.77-12.1,10.1-11.72,1.38,.98,1.61,2.19,.7,3.62Z"/>
    <path class="cls-38" d="M148.18,170.25c2.81,1.65,3.91,5.85,8.11,5.41-2.47,3.48-4.69,9.31-9.77,6.52-7.72-4.23,3.15-7.56,1.66-11.93Z"/>
    <path class="cls-38" d="M156.28,159.44c-6.41,.79-10.03,4.37-10.79,10.8-.9-.9-1.81-1.79-2.71-2.69,.9-4.51,1.8-9.01,2.7-13.52,4.17-3.17,7.49-1.02,10.73,1.69,.75,1.22,.74,2.46,.07,3.71Z"/>
    <path class="cls-40" d="M177.88,191.88c2.71,0,5.41,0,8.12-.01,2.76-2.79,5.93-2.92,9.34-1.42,.49,.47,.98,.94,1.46,1.42-3.03,4.01,1.06,5.65,2.7,8.11-7.49,1.36-14.31-2.57-21.61-2.7,0-1.8,0-3.6-.01-5.4Z"/>
    <path class="cls-83" d="M121.16,102.68c-3.17,1.94-2.61,5.14-2.7,8.11-3.6,2.7-7.2,5.41-10.8,8.11-.39-4.7,3.89-7.06,5.41-10.81,4.6-3.36,1.07-11.61,8.1-13.52,.43,.45,.85,.9,1.28,1.35,1.05,2.53,.8,4.82-1.28,6.76Z"/>
    <path class="cls-83" d="M134.67,97.28h-2.7c-3.81-.08-7.83,.72-10.8-2.7h0c3.79-4.51,8.96-2.05,13.51-2.7,0,1.8,0,3.6,0,5.4Z"/>
    <path class="cls-62" d="M156.27,156.73c-3.6-.9-7.2-1.8-10.79-2.7-1.62-12.71,.7-24.51,8.11-35.13,7.84-11.97,19.81-9.54,30.08-6.46,5.07,1.52,10.98,3.31,15.85,6.45,2.99,7.54,11.45,4.13,16.21,8.11-1.85,8.12,7.59,13.42,5.4,21.62-1.53,1.52-3.34,1.78-5.35,1.24-5.18-3.13-7.8-8.07-9.52-13.61,.22-6.11-3.97-5.35-7.89-4.99-8.97-2.63-17.9,.9-26.83,.21-6.27,.37-6.22,5.87-7.97,9.89-2.28,5.19-2.52,11.35-7.29,15.35Z"/>
    <path class="cls-40" d="M199.52,191.88c-.9,0-1.81,0-2.71,0h0c-2.07-3.81-.51-7.81-.67-11.73,.04-2.12,.29-4.2,.84-6.26,1.25-4.02,4.17-5.98,8.15-6.65,3.92-.37,7.69-.19,10.58,3.03-5.91,6.17-5.78,13.86-5.41,21.6-3.59,3.36-7.19,2.21-10.79,.02Z"/>
    <path class="cls-13" d="M215.72,170.26l-10.8-.02c-.74-8.35,3.98-14.86,7.33-21.84,1.21-.81,2.38-.78,3.48,.22,1.8,0,3.6,0,5.4,0,0,7.21,0,14.41,0,21.62-1.8,0-3.6,0-5.4,0Z"/>
    <path class="cls-30" d="M199.52,191.88c3.6,0,7.19-.01,10.79-.02,2.15,.39,4.91,.62,4.28,3.62-.6,2.83-2.89,4.53-5.96,3.4-3.71-1.37-7.48-2.86-9.11-7.01Z"/>
    <path class="cls-49" d="M110.35,129.71c1.43-3.22,2.86-6.44,4.81-10.82,3.66,4.38,7.02,8.65,4.06,13.03-2.9,4.28-5.2-3.78-8.86-2.19h0Z"/>
    <path class="cls-21" d="M121.17,94.58c3.73,.37,7.97-1.26,10.8,2.7-2.75,3.51-6.52,4.97-10.81,5.4,0-2.7,0-5.4,0-8.1Z"/>
    <path class="cls-16" d="M213.02,148.63c-.09,8.18-3.46,15.14-8.1,21.61-3.51,.1-5.32,1.9-5.42,5.42-6.29,8.16-13.32,10.46-21.6,2.7,2.1-9.3-7.67-6.74-10.8-10.81,5.02-5.88,11.42-9.59,18.92-11.03,5.12-.99,8.84-3.55,11.6-7.8,2.08-2.35,4.28-4.56,7.02-6.15,4.85-.83,6.6,2.65,8.38,6.07Z"/>
    <path class="cls-95" d="M199.51,148.63c-.85,7.04-3.84,11.55-11.9,10.86-8.08-.69-12.55,8.19-20.51,8.05-2.75-3.51-6.53-4.97-10.81-5.41,0-.9,0-1.8,0-2.7,0-.9,0-1.81-.01-2.71,.23-5.93,1.48-11.53,5.4-16.23,.5,.25,.99,.49,1.5,.72,1.45,.94,3.06,1.14,4.74,1.08,3.32,1.39,5.56-4.83,9.19-1.34,6.08,6.6,16.15,1.58,22.4,7.68Z"/>
    <path class="cls-2" d="M199.5,181.06c.43,3.94-.86,7.44-2.7,10.81h-10.8c-.9-1.8-1.8-3.6-2.7-5.4,4.38-4.87,9.09-8.74,16.21-5.42Z"/>
    <path class="cls-14" d="M199.5,181.06c-6.24-.69-10.98,3.09-16.21,5.42-5.48-.26-5.45-4.18-5.4-8.12,7.69,2.99,14.73,.86,21.6-2.7,0,1.8,0,3.6,0,5.4Z"/>
    <path class="cls-72" d="M213.02,148.63c-2.7-1.8-5.4-3.61-8.1-5.41-9.72,.45-19.4,.73-27.75-5.63-.21-1.41,.24-2.59,1.25-3.57,6.31-3.49,13.21-2.6,19.98-2.69,3.51,.2,6.91,.67,9.22,3.79,2.7,4.5,5.41,9,8.11,13.51-.9,0-1.81,0-2.71,0Z"/>
    <path class="cls-11" d="M199.5,132.41c-6.79,4.17-14.34,2.28-21.6,2.7-8.72,1.91-7.53-2.79-5.41-8.11,3.82,7.43,6.38-2.62,10.69-.73,4.94,2.16,11.29-.03,16.32,3.44,.63,.9,.66,1.8,0,2.7Z"/>
    <path class="cls-75" d="M172.49,127.01c-.04,3.93-.07,7.86,5.41,8.11,0,.9,0,1.8,0,2.7-.31,1.49-1.22,2.39-2.71,2.7-2.8,.57-2.67,9.97-8.08,2.7-2.37,.25-3.94-1.12-5.42-2.68l-.02-.04c.4-7.07,1.14-13.87,10.82-13.49Z"/>
    <path class="cls-17" d="M199.5,132.41c0-.9,0-1.8,0-2.7,2.71-3.24,6.14-3.77,9.19-1.18,2.49,2.11,1.3,4.7-1.09,6.58-2.97-.09-6.16,.47-8.11-2.7Z"/>
    <path class="cls-67" d="M175.19,140.52c.9-.9,1.8-1.8,2.71-2.7,9.02,1.75,18.62,.54,27.02,5.4-.09,3.51-1.89,5.32-5.41,5.41-5.66,0-11.32-.19-16.97,.02-5.89,.22-7.62-2.97-7.35-8.13Z"/>
  </g>
  <ellipse class="cls-6" cx="188.57" cy="155.67" rx="141.11" ry="128.33"/>
  <path class="cls-5" d="M329.68,155.67c0,70.88-63.18,128.33-141.11,128.33-187.24-6.91-187.19-249.78,0-256.67,77.93,0,141.11,57.46,141.11,128.33h0Z"/>
</svg>