<?xml version="1.0" encoding="UTF-8"?>
<svg id="Layer_1" data-name="Layer 1" xmlns="http://www.w3.org/2000/svg" viewBox="0 0 268.67 171.33">
  <defs>
    <style>
      .cls-1 {
        fill: #749e20;
      }

      .cls-2 {
        fill: #618a10;
      }

      .cls-3 {
        fill: #6f981d;
      }

      .cls-4 {
        fill: #73a020;
      }

      .cls-5 {
        fill: #769f22;
      }

      .cls-6 {
        fill: #86a83e;
      }

      .cls-7 {
        fill: #76a023;
      }

      .cls-8 {
        fill: #6f991d;
      }

      .cls-9 {
        fill: #d2eba0;
      }

      .cls-10 {
        fill: #70981f;
      }

      .cls-11 {
        fill: #80a92c;
      }

      .cls-12 {
        fill: #6f9820;
      }

      .cls-13 {
        fill: #b2cb7f;
      }

      .cls-14 {
        fill: #6d9912;
      }

      .cls-15 {
        fill: #6b9519;
      }

      .cls-16 {
        fill: #6c9520;
      }
    </style>
  </defs>
  <path class="cls-11" d="M62.46,51c-.23,.3-.19,.57,.11,.8,.97,.43,1.38,2.59,3.02,.93,3.95-3,2.36-9.46,6.25-9.41,12.16,.16,24.48-8.83,36.55-9.49,3.03-.17,6-.38,8.23,1.77,2.03,1.96,3.37,2.58,6.1,.8,3.01-1.96,4.3,2.25,6.68,2.99,4.31,.55,.03-3.94,2.58-4.42,2.34-2.06,4.7-1.33,6.54,.48,3.45,3.4,6.94,3.15,10.45,.52,3.85-2.89,7.14-2.49,10.2,1.05,2.01,2.32,3.8,2.27,6.08,.1,2.9-2.77,6.49-2.86,10.26-1.77,7.15,2.07,19.83,19.74,26.92,16.45,4.54-2.11,5.96,1.56,5.8,4.79,10.87,15.92,12.11,31.83,.22,47.79-1.91,2.56,.4,6.27,.79,9.4,.48,3.93-1.04,6.92-5.4,7.02-7.64,.16-14.29,24.14-21.08,17.94-5.96-5.44-12.64-.13-18.25,2.25-4.73,2.01-9.07,3.07-14,2.45-2.73-.49-5.12-2.17-7.96-2.26-3.23,.43-6.23,.11-8.69-2.39-2.8-2.82-4.87-2.58-6.07,1.52-.52,1.76-2.02,2.9-3.81,2.89-6.75-.03-13.53,1.22-20.22-.02-2.8-.52-5.24-1.61-8.31-.54-4.18,1.45-4.07-5.07-7.86-4.93-3.09,1.43-1.32,7.13-6.17,7-6.79,1.12-14.51-21.56-21.33-21.89-5.18-.25-8.3-2.62-8.4-8.03-10.04-20.33-12.26-40.01,.05-58.47,.19-7.06,3.07-8.22,10.75-5.34Z"/>
  <path class="cls-6" d="M135.35,143.34c-1.59-2.25-3.17-4.5-4.77-6.77-2.83,1.47-2.46,4-2.86,6.19-11.02,2.03-22.13,.58-33.2,.84-2.96,.07-4.33-2.8-6.2-4.63-.73-.84-2.04-1.35-1.63-2.84,2.5-1.46,4.76-1.73,5.34,1.83,.29,1.8,1.66,4.41,2.34,3.53,4.57-5.86,8.22,1.04,12.38,.52,4.98-.62,10.11-.41,15.15-.12,3.64,.2,4.36-1.68,5.01-4.65,.82-3.72,2.77-4.9,5.96-1.6,2.66,2.75,5.57,5.44,9.97,3.43-.78,4.43-3.24,5.92-7.49,4.28Z"/>
  <path class="cls-13" d="M135.35,143.34c2.98-.58,5.71-1.59,7.49-4.28,2.38,.93,4.76,1.86,7.14,2.79,.05,.43,.09,.86,.13,1.29-.36,.58-.84,1.02-1.45,1.32-3.8,1.29-7.7,1.83-11.71,1.37-.62-.25-1.15-.65-1.56-1.19-.05-.44-.07-.87-.04-1.31Z"/>
  <path class="cls-8" d="M195.34,89.01c.18,1.7-.87,2.14-2.13,2.19-2.56,.09-3.19-1.56-3.06-3.7,.08-1.34-.06-3.23,2.06-2.76,2.1,.47,2.44,2.65,3.13,4.26Z"/>
  <path class="cls-1" d="M63.6,86.63c2.51-.56,4.18-3.42,6.99-2.34,.81,.31,.73,1.91-.07,2.47-2.2,1.53-4.54,1.47-6.92-.13Z"/>
  <path class="cls-5" d="M96.06,91.67c.08,1.49-.69,2.34-2.11,2.25-1.45-.1-1.91-1.24-1.92-2.57-.01-1.32,.36-2.56,1.94-2.3,1.25,.21,1.96,1.3,2.09,2.62Z"/>
  <path class="cls-7" d="M152.98,75.45c1.31,.11,2.4,.73,2.69,1.99,.36,1.6-.85,2-2.15,2.03-1.28,.03-2.47-.32-2.65-1.8-.17-1.44,.65-2.19,2.11-2.22Z"/>
  <path class="cls-10" d="M103.36,97.54c.02,1.59-.7,2.38-2.16,2.33-1.33-.04-2.48-.75-2.39-2.08,.04-.66,1.14-1.56,1.93-1.78,1.23-.35,2.37,.12,2.62,1.53Z"/>
  <path class="cls-4" d="M70.33,62.36c1.07-.11,1.9,.23,2.16,1.34,.34,1.47-.43,2.34-1.81,2.42-1.01,.05-1.84-.6-1.88-1.73-.04-1.02,.37-1.85,1.53-2.03Z"/>
  <path class="cls-9" d="M86.69,136.12c.54,.95,1.09,1.89,1.63,2.84-3.23-.36-2.1,3.44-4.07,4.27,.84-2.36-3.05-6.35,2.45-7.11Z"/>
  <path class="cls-3" d="M62.32,104.04c-.14,1.15-.96,1.71-1.96,1.63-1.41-.11-2.1-1.05-1.71-2.49,.29-1.09,1.15-1.45,2.21-1.24,1.14,.22,1.48,1.04,1.46,2.1Z"/>
  <path class="cls-16" d="M152.06,125.91c-.37,.45-.97,1.75-1.5,1.72-1.53-.09-2.64-1.26-2.56-2.81,.03-.57,1.26-1.47,2-1.53,1.29-.1,2.19,.72,2.07,2.62Z"/>
  <path class="cls-15" d="M181.17,80.27c-1.16,.85-1.82,1.68-2.59,1.81-1.35,.23-2.34-.61-2.19-2.04,.11-1.03,1.08-1.71,2.1-1.47,.8,.19,1.48,.91,2.69,1.7Z"/>
  <path class="cls-5" d="M173.05,86.07c.51-.41,1.14-1.29,1.94-1.47,1.07-.25,1.71,.66,1.67,1.72-.05,1.05-.76,1.76-1.81,1.81-1.05,.05-1.76-.51-1.79-2.06Z"/>
  <path class="cls-2" d="M159.27,130.04c.14,1.4-.87,1.57-1.84,1.54-.85-.03-2.32,.24-1.91-1.31,.21-.78,1.14-1.66,1.94-1.94,1.26-.44,1.43,.88,1.81,1.71Z"/>
  <path class="cls-14" d="M71.19,59.36c-.9,.44-1.46,.94-2.03,.94-1.05,0-1.76-.7-1.26-1.74,.19-.4,1.19-.67,1.76-.58,.49,.08,.87,.76,1.53,1.38Z"/>
  <path class="cls-5" d="M87.88,94.23c-.42-.59-1.1-1.16-1.01-1.54,.11-.46,.85-1.05,1.36-1.09,.99-.08,1.83,.52,1.48,1.62-.14,.43-1.06,.61-1.84,1.01Z"/>
  <path class="cls-12" d="M97.59,127.2c-.42-.6-1.1-1.17-1.01-1.55,.11-.47,.86-1.05,1.37-1.09,1-.08,1.83,.53,1.48,1.63-.14,.43-1.06,.61-1.84,1.02Z"/>
</svg>